<svg aria-hidden="true" style="position: absolute; width: 0; height: 0; overflow: hidden;" version="1.1" xmlns="http://www.w3.org/2000/svg" xmlns:xlink="http://www.w3.org/1999/xlink">
<defs>
<symbol id="icon-eye" viewBox="0 0 40 32">
<path d="M3.568 16c0.182-0.315 0.424-0.716 0.723-1.179 0.768-1.19 1.906-2.772 3.384-4.348 2.985-3.184 7.158-6.14 12.326-6.14s9.341 2.956 12.326 6.14c1.477 1.576 2.615 3.158 3.384 4.348 0.299 0.463 0.541 0.864 0.723 1.179-0.182 0.315-0.424 0.716-0.723 1.179-0.768 1.19-1.906 2.772-3.384 4.348-2.985 3.184-7.158 6.14-12.326 6.14s-9.341-2.956-12.326-6.14c-1.477-1.576-2.615-3.158-3.384-4.348-0.299-0.463-0.541-0.864-0.723-1.179zM38.333 16c1.491-0.745 1.49-0.747 1.49-0.747l-0.003-0.005-0.006-0.011-0.019-0.037c-0.016-0.031-0.038-0.074-0.067-0.129-0.058-0.11-0.142-0.265-0.252-0.461-0.22-0.391-0.543-0.941-0.967-1.598-0.846-1.31-2.104-3.061-3.752-4.819-3.265-3.483-8.258-7.193-14.758-7.193s-11.493 3.711-14.758 7.193c-1.648 1.758-2.906 3.509-3.752 4.819-0.424 0.657-0.748 1.207-0.967 1.598-0.11 0.195-0.194 0.351-0.252 0.461-0.029 0.055-0.051 0.098-0.067 0.129l-0.019 0.037-0.006 0.011-0.002 0.004c0 0-0.001 0.003 1.489 0.748l-1.491-0.745c-0.235 0.469-0.235 1.021 0 1.491l1.491-0.745c-1.491 0.745-1.491 0.745-1.491 0.745l0.003 0.007 0.006 0.011 0.019 0.037c0.016 0.031 0.038 0.074 0.067 0.129 0.058 0.11 0.142 0.265 0.252 0.461 0.22 0.391 0.543 0.941 0.967 1.598 0.846 1.31 2.104 3.061 3.752 4.819 3.265 3.483 8.258 7.193 14.758 7.193s11.493-3.711 14.758-7.193c1.648-1.758 2.906-3.509 3.752-4.819 0.424-0.657 0.748-1.207 0.967-1.598 0.11-0.195 0.194-0.351 0.252-0.461 0.029-0.055 0.051-0.098 0.067-0.129l0.019-0.037 0.006-0.011 0.002-0.004c0 0 0.001-0.003-1.489-0.748zM38.333 16l1.491 0.745c0.235-0.469 0.234-1.023-0.001-1.492l-1.49 0.747z"></path>
<path d="M20 12.667c-1.841 0-3.333 1.492-3.333 3.333s1.492 3.333 3.333 3.333c1.841 0 3.333-1.492 3.333-3.333s-1.492-3.333-3.333-3.333zM13.333 16c0-3.682 2.985-6.667 6.667-6.667s6.667 2.985 6.667 6.667-2.985 6.667-6.667 6.667c-3.682 0-6.667-2.985-6.667-6.667z"></path>
</symbol>
<symbol id="icon-info" viewBox="0 0 32 32">
<path d="M16 4c-6.627 0-12 5.373-12 12s5.373 12 12 12c6.627 0 12-5.372 12-12s-5.373-12-12-12zM1.334 16c0-8.1 6.566-14.667 14.667-14.667s14.667 6.566 14.667 14.667c0 8.1-6.566 14.667-14.667 14.667s-14.667-6.567-14.667-14.667z"></path>
<path d="M16 14.667c0.736 0 1.333 0.597 1.333 1.333v5.333c0 0.736-0.597 1.333-1.333 1.333s-1.333-0.597-1.333-1.333v-5.333c0-0.736 0.597-1.333 1.333-1.333z"></path>
<path d="M14.667 10.667c0-0.736 0.597-1.333 1.333-1.333h0.013c0.736 0 1.333 0.597 1.333 1.333s-0.597 1.333-1.333 1.333h-0.013c-0.736 0-1.333-0.597-1.333-1.333z"></path>
</symbol>
<symbol id="icon-menu" viewBox="0 0 32 32">
<path d="M2.667 16c0-0.736 0.597-1.333 1.333-1.333h24c0.736 0 1.333 0.597 1.333 1.333s-0.597 1.333-1.333 1.333h-24c-0.736 0-1.333-0.597-1.333-1.333z"></path>
<path d="M2.667 8c0-0.736 0.597-1.333 1.333-1.333h24c0.736 0 1.333 0.597 1.333 1.333s-0.597 1.333-1.333 1.333h-24c-0.736 0-1.333-0.597-1.333-1.333z"></path>
<path d="M2.667 24c0-0.736 0.597-1.333 1.333-1.333h24c0.736 0 1.333 0.597 1.333 1.333s-0.597 1.333-1.333 1.333h-24c-0.736 0-1.333-0.597-1.333-1.333z"></path>
</symbol>
<symbol id="icon-close" viewBox="0 0 32 32">
<path d="M31.331 0.669c0.893 0.893 0.893 2.34 0 3.232l-27.429 27.429c-0.893 0.893-2.34 0.893-3.232 0s-0.893-2.34 0-3.232l27.429-27.429c0.893-0.893 2.34-0.893 3.232 0z"></path>
<path d="M0.669 0.669c0.893-0.893 2.34-0.893 3.232 0l27.429 27.429c0.893 0.893 0.893 2.34 0 3.232s-2.34 0.893-3.232 0l-27.429-27.429c-0.893-0.893-0.893-2.34 0-3.232z"></path>
</symbol>
<symbol id="icon-log-out" viewBox="0 0 32 32">
<path fill="none" stroke="#653cd9" style="stroke: var(--color1, #653cd9)" stroke-linejoin="round" stroke-linecap="round" stroke-miterlimit="4" stroke-width="2.6667" d="M12 28h-5.333c-0.707 0-1.386-0.281-1.886-0.781s-0.781-1.178-0.781-1.886v-18.667c0-0.707 0.281-1.386 0.781-1.886s1.178-0.781 1.886-0.781h5.333"></path>
<path fill="none" stroke="#653cd9" style="stroke: var(--color1, #653cd9)" stroke-linejoin="round" stroke-linecap="round" stroke-miterlimit="4" stroke-width="2.6667" d="M21.333 22.667l6.667-6.667-6.667-6.667"></path>
<path fill="none" stroke="#653cd9" style="stroke: var(--color1, #653cd9)" stroke-linejoin="round" stroke-linecap="round" stroke-miterlimit="4" stroke-width="2.6667" d="M28 16h-16"></path>
</symbol>
<symbol id="icon-sideBar-menu" viewBox="0 0 27 32">
<path d="M26.759 31.331c-0.893 0.893-2.34 0.893-3.232 0l-13.714-13.714c-0.893-0.893-0.893-2.34 0-3.232l13.714-13.714c0.893-0.893 2.34-0.893 3.232 0s0.893 2.34 0 3.232l-12.098 12.098 12.098 12.098c0.893 0.893 0.893 2.34 0 3.232z"></path>
<path d="M2.286 0c1.262 0 2.286 1.023 2.286 2.286v27.429c0 1.262-1.023 2.286-2.286 2.286s-2.286-1.023-2.286-2.286v-27.429c0-1.262 1.023-2.286 2.286-2.286z"></path>
</symbol>
<symbol id="icon-arrow-right" viewBox="0 0 18 32">
<path d="M0.669 0.669c0.893-0.893 2.34-0.893 3.232 0l13.714 13.714c0.893 0.893 0.893 2.34 0 3.232l-13.714 13.714c-0.893 0.893-2.34 0.893-3.232 0s-0.893-2.34 0-3.232l12.098-12.098-12.098-12.098c-0.893-0.893-0.893-2.34 0-3.232z"></path>
</symbol>
<symbol id="icon-arrow-left" viewBox="0 0 18 32">
<path d="M17.616 0.669c0.893 0.893 0.893 2.34 0 3.232l-12.098 12.098 12.098 12.098c0.893 0.893 0.893 2.34 0 3.232s-2.34 0.893-3.232 0l-13.714-13.714c-0.893-0.893-0.893-2.34 0-3.232l13.714-13.714c0.893-0.893 2.34-0.893 3.232 0z"></path>
</symbol>
<symbol id="icon-edit" viewBox="0 0 32 32">
<path d="M14.667 26.667c0-0.736 0.597-1.333 1.333-1.333h12c0.736 0 1.333 0.597 1.333 1.333s-0.597 1.333-1.333 1.333h-12c-0.736 0-1.333-0.597-1.333-1.333z"></path>
<path d="M24 5.172c-0.397 0-0.777 0.158-1.057 0.438l-16.406 16.406-0.705 2.819 2.819-0.705 16.406-16.406c0.139-0.139 0.249-0.304 0.324-0.485s0.114-0.376 0.114-0.572-0.039-0.391-0.114-0.572c-0.075-0.181-0.185-0.346-0.324-0.485s-0.304-0.249-0.485-0.324c-0.181-0.075-0.376-0.114-0.572-0.114zM21.058 3.724c0.78-0.78 1.839-1.219 2.943-1.219 0.546 0 1.088 0.108 1.593 0.317s0.964 0.516 1.35 0.902c0.386 0.386 0.693 0.845 0.902 1.35s0.317 1.046 0.317 1.593-0.108 1.088-0.317 1.593c-0.209 0.505-0.516 0.964-0.902 1.35l-16.667 16.667c-0.171 0.171-0.385 0.292-0.619 0.351l-5.333 1.333c-0.454 0.114-0.935-0.020-1.266-0.351s-0.464-0.812-0.351-1.266l1.333-5.333c0.059-0.235 0.18-0.449 0.351-0.619l16.667-16.667z"></path>
</symbol>
<symbol id="icon-arrow-left-switch" viewBox="0 0 32 32">
<path d="M5.333 16c0-0.736 0.597-1.333 1.333-1.333h18.667c0.736 0 1.333 0.597 1.333 1.333s-0.597 1.333-1.333 1.333h-18.667c-0.736 0-1.333-0.597-1.333-1.333z"></path>
<path d="M16.942 5.724c0.521 0.521 0.521 1.365 0 1.886l-8.391 8.391 8.391 8.391c0.521 0.521 0.521 1.365 0 1.886s-1.365 0.521-1.886 0l-9.333-9.333c-0.521-0.521-0.521-1.365 0-1.886l9.333-9.333c0.521-0.521 1.365-0.521 1.886 0z"></path>
</symbol>
<symbol id="icon-arrow-right-switch" viewBox="0 0 32 32">
<path d="M5.333 16c0-0.736 0.597-1.333 1.333-1.333h18.667c0.736 0 1.333 0.597 1.333 1.333s-0.597 1.333-1.333 1.333h-18.667c-0.736 0-1.333-0.597-1.333-1.333z"></path>
<path d="M15.058 5.724c0.521-0.521 1.365-0.521 1.886 0l9.333 9.333c0.521 0.521 0.521 1.365 0 1.886l-9.333 9.333c-0.521 0.521-1.365 0.521-1.886 0s-0.521-1.365 0-1.886l8.39-8.391-8.39-8.391c-0.521-0.521-0.521-1.365 0-1.886z"></path>
</symbol>
<symbol id="icon-copy" viewBox="0 0 32 32">
<path d="M14.667 13.333c-0.736 0-1.333 0.597-1.333 1.333v12c0 0.736 0.597 1.333 1.333 1.333h12c0.736 0 1.333-0.597 1.333-1.333v-12c0-0.736-0.597-1.333-1.333-1.333h-12zM10.667 14.667c0-2.209 1.791-4 4-4h12c2.209 0 4 1.791 4 4v12c0 2.209-1.791 4-4 4h-12c-2.209 0-4-1.791-4-4v-12z"></path>
<path d="M5.333 4c-0.354 0-0.693 0.14-0.943 0.391s-0.391 0.589-0.391 0.943v12c0 0.354 0.14 0.693 0.391 0.943s0.589 0.391 0.943 0.391h1.333c0.736 0 1.333 0.597 1.333 1.333s-0.597 1.333-1.333 1.333h-1.333c-1.061 0-2.078-0.421-2.828-1.172s-1.172-1.768-1.172-2.828v-12c0-1.061 0.421-2.078 1.172-2.828s1.768-1.172 2.828-1.172h12c1.061 0 2.078 0.421 2.828 1.172s1.172 1.768 1.172 2.828v1.333c0 0.736-0.597 1.333-1.333 1.333s-1.333-0.597-1.333-1.333v-1.333c0-0.354-0.14-0.693-0.391-0.943s-0.589-0.391-0.943-0.391h-12z"></path>
</symbol>
<symbol id="icon-login" viewBox="0 0 32 32">
<path fill="none" stroke="#97cb43" style="stroke: var(--color1, #97cb43)" stroke-linejoin="miter" stroke-linecap="butt" stroke-miterlimit="4" stroke-width="1.3333" d="M5.333 0.667h21.333c2.577 0 4.667 2.089 4.667 4.667v21.333c0 2.577-2.089 4.667-4.667 4.667h-21.333c-2.577 0-4.667-2.089-4.667-4.667v-21.333c0-2.577 2.089-4.667 4.667-4.667z"></path>
<path fill="#97cb43" style="fill: var(--color1, #97cb43)" d="M8.889 16c0-0.491 0.398-0.889 0.889-0.889h12.444c0.491 0 0.889 0.398 0.889 0.889s-0.398 0.889-0.889 0.889h-12.444c-0.491 0-0.889-0.398-0.889-0.889z"></path>
<path fill="#97cb43" style="fill: var(--color1, #97cb43)" d="M15.371 9.149c0.347-0.347 0.91-0.347 1.257 0l6.222 6.222c0.347 0.347 0.347 0.91 0 1.257l-6.222 6.222c-0.347 0.347-0.91 0.347-1.257 0s-0.347-0.91 0-1.257l5.594-5.594-5.594-5.594c-0.347-0.347-0.347-0.91 0-1.257z"></path>
</symbol>
<symbol id="icon-repeat" viewBox="0 0 24 24">
<path d="M4 11v-2c0-0.829 0.335-1.577 0.879-2.121s1.292-0.879 2.121-0.879h11.586l-2.293 2.293c-0.391 0.391-0.391 1.024 0 1.414s1.024 0.391 1.414 0l4-4c0.096-0.096 0.168-0.206 0.217-0.324s0.076-0.247 0.076-0.383c0-0.13-0.025-0.261-0.076-0.383-0.049-0.118-0.121-0.228-0.217-0.324l-4-4c-0.391-0.391-1.024-0.391-1.414 0s-0.391 1.024 0 1.414l2.293 2.293h-11.586c-1.38 0-2.632 0.561-3.536 1.464s-1.464 2.156-1.464 3.536v2c0 0.552 0.448 1 1 1s1-0.448 1-1zM20 13v2c0 0.829-0.335 1.577-0.879 2.121s-1.292 0.879-2.121 0.879h-11.586l2.293-2.293c0.391-0.391 0.391-1.024 0-1.414s-1.024-0.391-1.414 0l-4 4c-0.092 0.092-0.166 0.202-0.217 0.324s-0.076 0.253-0.076 0.383c0 0.256 0.098 0.512 0.293 0.707l4 4c0.391 0.391 1.024 0.391 1.414 0s0.391-1.024 0-1.414l-2.293-2.293h11.586c1.38 0 2.632-0.561 3.536-1.464s1.464-2.156 1.464-3.536v-2c0-0.552-0.448-1-1-1s-1 0.448-1 1z"></path>
</symbol>
<symbol id="icon-trash" viewBox="0 0 24 24">
<path d="M18 7v13c0 0.276-0.111 0.525-0.293 0.707s-0.431 0.293-0.707 0.293h-10c-0.276 0-0.525-0.111-0.707-0.293s-0.293-0.431-0.293-0.707v-13zM17 5v-1c0-0.828-0.337-1.58-0.879-2.121s-1.293-0.879-2.121-0.879h-4c-0.828 0-1.58 0.337-2.121 0.879s-0.879 1.293-0.879 2.121v1h-4c-0.552 0-1 0.448-1 1s0.448 1 1 1h1v13c0 0.828 0.337 1.58 0.879 2.121s1.293 0.879 2.121 0.879h10c0.828 0 1.58-0.337 2.121-0.879s0.879-1.293 0.879-2.121v-13h1c0.552 0 1-0.448 1-1s-0.448-1-1-1zM9 5v-1c0-0.276 0.111-0.525 0.293-0.707s0.431-0.293 0.707-0.293h4c0.276 0 0.525 0.111 0.707 0.293s0.293 0.431 0.293 0.707v1zM9 11v6c0 0.552 0.448 1 1 1s1-0.448 1-1v-6c0-0.552-0.448-1-1-1s-1 0.448-1 1zM13 11v6c0 0.552 0.448 1 1 1s1-0.448 1-1v-6c0-0.552-0.448-1-1-1s-1 0.448-1 1z"></path>
</symbol>
<symbol id="icon-check" viewBox="0 0 32 32">
<path fill="#fff" style="fill: var(--color1, #fff)" d="M27.609 7.057c0.521 0.521 0.521 1.365 0 1.886l-14.667 14.667c-0.521 0.521-1.365 0.521-1.886 0l-6.667-6.667c-0.521-0.521-0.521-1.365 0-1.886s1.365-0.521 1.886 0l5.724 5.724 13.724-13.724c0.521-0.521 1.365-0.521 1.886 0z"></path>
</symbol>
<symbol id="icon-corner-up-right" viewBox="0 0 32 32">
<path d="M19.057 4.391c0.521-0.521 1.365-0.521 1.886 0l6.667 6.667c0.521 0.521 0.521 1.365 0 1.886l-6.667 6.667c-0.521 0.521-1.365 0.521-1.886 0s-0.521-1.365 0-1.886l5.724-5.724-5.724-5.724c-0.521-0.521-0.521-1.365 0-1.886z"></path>
<path d="M10.667 13.333c-1.061 0-2.078 0.421-2.828 1.172s-1.172 1.768-1.172 2.828v9.333c0 0.736-0.597 1.333-1.333 1.333s-1.333-0.597-1.333-1.333v-9.333c0-1.768 0.702-3.464 1.953-4.714s2.946-1.953 4.714-1.953h16c0.736 0 1.333 0.597 1.333 1.333s-0.597 1.333-1.333 1.333h-16z"></path>
</symbol>
<symbol id="icon-external-link" viewBox="0 0 24 24">
<path d="M17 13v6c0 0.276-0.111 0.525-0.293 0.707s-0.431 0.293-0.707 0.293h-11c-0.276 0-0.525-0.111-0.707-0.293s-0.293-0.431-0.293-0.707v-11c0-0.276 0.111-0.525 0.293-0.707s0.431-0.293 0.707-0.293h6c0.552 0 1-0.448 1-1s-0.448-1-1-1h-6c-0.828 0-1.58 0.337-2.121 0.879s-0.879 1.293-0.879 2.121v11c0 0.828 0.337 1.58 0.879 2.121s1.293 0.879 2.121 0.879h11c0.828 0 1.58-0.337 2.121-0.879s0.879-1.293 0.879-2.121v-6c0-0.552-0.448-1-1-1s-1 0.448-1 1zM10.707 14.707l9.293-9.293v3.586c0 0.552 0.448 1 1 1s1-0.448 1-1v-6c0-0.136-0.027-0.265-0.076-0.383s-0.121-0.228-0.216-0.323c-0.001-0.001-0.001-0.001-0.002-0.002-0.092-0.092-0.202-0.166-0.323-0.216-0.118-0.049-0.247-0.076-0.383-0.076h-6c-0.552 0-1 0.448-1 1s0.448 1 1 1h3.586l-9.293 9.293c-0.391 0.391-0.391 1.024 0 1.414s1.024 0.391 1.414 0z"></path>
</symbol>
<symbol id="icon-x" viewBox="0 0 32 32">
<path fill="#fff" style="fill: var(--color1, #fff)" d="M24.943 7.057c0.521 0.521 0.521 1.365 0 1.886l-16 16c-0.521 0.521-1.365 0.521-1.886 0s-0.521-1.365 0-1.886l16-16c0.521-0.521 1.365-0.521 1.886 0z"></path>
<path fill="#fff" style="fill: var(--color1, #fff)" d="M7.057 7.057c0.521-0.521 1.365-0.521 1.886 0l16 16c0.521 0.521 0.521 1.365 0 1.886s-1.365 0.521-1.886 0l-16-16c-0.521-0.521-0.521-1.365 0-1.886z"></path>
</symbol>
<symbol id="icon-sort" viewBox="0 0 12 24">
<path fill="#474747" style="fill: var(--color1, #474747)" d="M2.646 7.854c0.195 0.195 0.512 0.195 0.707 0l2.646-2.646 2.646 2.646c0.195 0.195 0.512 0.195 0.707 0s0.195-0.512 0-0.707l-3-3c-0.195-0.195-0.512-0.195-0.707 0l-3 3c-0.195 0.195-0.195 0.512 0 0.707z"></path>
<path fill="#474747" style="fill: var(--color1, #474747)" d="M2.646 16.146c0.195-0.195 0.512-0.195 0.707 0l2.646 2.646 2.646-2.646c0.195-0.195 0.512-0.195 0.707 0s0.195 0.512 0 0.707l-3 3c-0.195 0.195-0.512 0.195-0.707 0l-3-3c-0.195-0.195-0.195-0.512 0-0.707z"></path>
</symbol>
<symbol id="icon-thumbs-up" viewBox="0 0 24 24">
<path fill="#fff" style="fill: var(--color1, #fff)" d="M10.381 2.54c0.148-0.328 0.478-0.54 0.843-0.54 0.978 0 1.917 0.383 2.609 1.065s1.081 1.607 1.081 2.571v2.727h4.294c0.399-0.004 0.794 0.078 1.159 0.239 0.366 0.162 0.692 0.4 0.955 0.699s0.458 0.649 0.569 1.029c0.112 0.38 0.139 0.779 0.078 1.17l-1.273 8.182c-0.1 0.65-0.435 1.243-0.944 1.669-0.507 0.425-1.152 0.655-1.818 0.649h-13.167c-0.734 0-1.438-0.287-1.957-0.799s-0.81-1.205-0.81-1.929v-6.364c0-0.723 0.292-1.417 0.81-1.928s1.223-0.799 1.957-0.799h2.168l3.446-7.642zM6.612 12h-1.845c-0.245 0-0.479 0.096-0.652 0.266s-0.27 0.402-0.27 0.643v6.364c0 0.241 0.097 0.472 0.27 0.643s0.408 0.266 0.652 0.266h1.845v-8.182zM8.457 20.182h9.493c0.222 0.003 0.438-0.074 0.608-0.216s0.281-0.34 0.315-0.556l1.273-8.182c0.020-0.13 0.011-0.264-0.026-0.39s-0.102-0.244-0.19-0.343c-0.088-0.099-0.196-0.179-0.318-0.233s-0.254-0.081-0.388-0.080l-0.010 0h-5.221c-0.51 0-0.922-0.407-0.922-0.909v-3.636c0-0.482-0.194-0.945-0.54-1.286-0.21-0.207-0.466-0.359-0.744-0.447l-3.328 7.38v8.898z"></path>
</symbol>
<symbol id="icon-users" viewBox="0 0 24 24">
<path fill="none" stroke="#fff" style="stroke: var(--color1, #fff)" stroke-linejoin="round" stroke-linecap="round" stroke-miterlimit="4" stroke-width="2" d="M17 21v-2c0-1.061-0.421-2.078-1.172-2.828s-1.767-1.172-2.828-1.172h-8c-1.061 0-2.078 0.421-2.828 1.172s-1.172 1.767-1.172 2.828v2"></path>
<path fill="none" stroke="#fff" style="stroke: var(--color1, #fff)" stroke-linejoin="round" stroke-linecap="round" stroke-miterlimit="4" stroke-width="2" d="M9 11c2.209 0 4-1.791 4-4s-1.791-4-4-4c-2.209 0-4 1.791-4 4s1.791 4 4 4z"></path>
<path fill="none" stroke="#fff" style="stroke: var(--color1, #fff)" stroke-linejoin="round" stroke-linecap="round" stroke-miterlimit="4" stroke-width="2" d="M23 21v-2c-0.001-0.886-0.296-1.747-0.839-2.448s-1.303-1.201-2.161-1.422"></path>
<path fill="none" stroke="#fff" style="stroke: var(--color1, #fff)" stroke-linejoin="round" stroke-linecap="round" stroke-miterlimit="4" stroke-width="2" d="M16 3.13c0.86 0.22 1.623 0.721 2.168 1.422s0.84 1.564 0.84 2.453c0 0.888-0.296 1.751-0.84 2.453s-1.307 1.202-2.168 1.422"></path>
</symbol>
<symbol id="icon-upload" viewBox="0 0 32 32">
<path d="M4 18.667c0.736 0 1.333 0.597 1.333 1.333v5.333c0 0.354 0.14 0.693 0.391 0.943s0.589 0.391 0.943 0.391h18.667c0.354 0 0.693-0.14 0.943-0.391s0.39-0.589 0.39-0.943v-5.333c0-0.736 0.597-1.333 1.333-1.333s1.333 0.597 1.333 1.333v5.333c0 1.061-0.421 2.078-1.172 2.828s-1.768 1.172-2.828 1.172h-18.667c-1.061 0-2.078-0.421-2.828-1.172s-1.172-1.768-1.172-2.828v-5.333c0-0.736 0.597-1.333 1.333-1.333z"></path>
<path d="M15.057 20.943c0.521 0.521 1.365 0.521 1.886 0l6.667-6.667c0.521-0.521 0.521-1.365 0-1.886s-1.365-0.521-1.886 0l-5.724 5.724-5.724-5.724c-0.521-0.521-1.365-0.521-1.886 0s-0.521 1.365 0 1.886l6.667 6.667z"></path>
<path d="M16 21.333c0.736 0 1.333-0.597 1.333-1.333v-16c0-0.736-0.597-1.333-1.333-1.333s-1.333 0.597-1.333 1.333v16c0 0.736 0.597 1.333 1.333 1.333z"></path>
</symbol>
<symbol id="icon-arrow-right-small" viewBox="0 0 32 32">
<path fill="#6e6e6e" style="fill: var(--color1, #6e6e6e)" d="M11.058 5.724c0.521-0.521 1.365-0.521 1.886 0l9.333 9.333c0.521 0.521 0.521 1.365 0 1.886l-9.333 9.333c-0.521 0.521-1.365 0.521-1.886 0s-0.521-1.365 0-1.886l8.391-8.391-8.391-8.391c-0.521-0.521-0.521-1.365 0-1.886z"></path>
</symbol>
<symbol id="icon-stats" viewBox="0 0 24 24">
<path d="M19 20v-10c0-0.552-0.448-1-1-1s-1 0.448-1 1v10c0 0.552 0.448 1 1 1s1-0.448 1-1zM13 20v-16c0-0.552-0.448-1-1-1s-1 0.448-1 1v16c0 0.552 0.448 1 1 1s1-0.448 1-1zM7 20v-6c0-0.552-0.448-1-1-1s-1 0.448-1 1v6c0 0.552 0.448 1 1 1s1-0.448 1-1z" fill="currentColor"/>
</symbol>
<symbol id="icon-search-crm" viewBox="0 0 32 32">
<path fill="none" stroke="#fff" style="stroke: var(--color1, #fff)" stroke-linejoin="round" stroke-linecap="round" stroke-miterlimit="4" stroke-width="2.6667" d="M14.667 25.333c5.891 0 10.667-4.776 10.667-10.667s-4.776-10.667-10.667-10.667c-5.891 0-10.667 4.776-10.667 10.667s4.776 10.667 10.667 10.667z"></path>
<path fill="none" stroke="#fff" style="stroke: var(--color1, #fff)" stroke-linejoin="round" stroke-linecap="round" stroke-miterlimit="4" stroke-width="2.6667" d="M28.001 28l-5.8-5.8"></path>
</symbol>
<symbol id="icon-history" viewBox="0 0 34 32">
<path fill="white" d="M20 2c7.732 0 14 6.268 14 14s-6.268 14-14 14v-3c2.938 0 5.701-1.144 7.778-3.222s3.222-4.84 3.222-7.778c0-2.938-1.144-5.701-3.222-7.778s-4.84-3.222-7.778-3.222c-2.938 0-5.701 1.144-7.778 3.222-1.598 1.598-2.643 3.601-3.041 5.778h5.819l-7 8-7-8h5.143c0.971-6.784 6.804-12 13.857-12zM26 14v4h-8v-10h4v6z"></path>
</symbol>
<symbol id="icon-file" viewBox="0 0 32 32">
<path d="M28.681 7.159c-0.694-0.947-1.662-2.053-2.724-3.116s-2.169-2.030-3.116-2.724c-1.612-1.182-2.393-1.319-2.841-1.319h-15.5c-1.378 0-2.5 1.121-2.5 2.5v27c0 1.378 1.122 2.5 2.5 2.5h23c1.378 0 2.5-1.122 2.5-2.5v-19.5c0-0.448-0.137-1.23-1.319-2.841zM24.543 5.457c0.959 0.959 1.712 1.825 2.268 2.543h-4.811v-4.811c0.718 0.556 1.584 1.309 2.543 2.268zM28 29.5c0 0.271-0.229 0.5-0.5 0.5h-23c-0.271 0-0.5-0.229-0.5-0.5v-27c0-0.271 0.229-0.5 0.5-0.5 0 0 15.499-0 15.5 0v7c0 0.552 0.448 1 1 1h7v19.5z" fill="white"/>
<path d="M23 26h-14c-0.552 0-1-0.448-1-1s0.448-1 1-1h14c0.552 0 1 0.448 1 1s-0.448 1-1 1z" fill="white"/>
<path d="M23 22h-14c-0.552 0-1-0.448-1-1s0.448-1 1-1h14c0.552 0 1 0.448 1 1s-0.448 1-1 1z" fill="white"/>
<path d="M23 18h-14c-0.552 0-1-0.448-1-1s0.448-1 1-1h14c0.552 0 1 0.448 1 1s-0.448 1-1 1z" fill="white"/>
</symbol>
<symbol id="icon-files" viewBox="0 0 32 32">
<path d="M20 8v-8h-14l-6 6v18h12v8h20v-24h-12zM6 2.828v3.172h-3.172l3.172-3.172zM2 22v-14h6v-6h10v6l-6 6v8h-10zM18 10.828v3.172h-3.172l3.172-3.172zM30 30h-16v-14h6v-6h10v20z" fill="white"/>
</symbol>
<symbol id="icon-piggy-bank" viewBox="0 0 32 32">
<path d="M15.188 0.1c-1.662 0.356-2.938 1.944-2.938 3.65 0 2.025 1.725 3.75 3.75 3.75 1.725 0 3.3-1.281 3.656-2.969 0.269-1.275-0.1-2.481-1.025-3.413-0.931-0.931-2.169-1.294-3.444-1.019zM16.762 2.050c0.369 0.163 0.775 0.569 0.944 0.944 0.188 0.4 0.188 1.113 0 1.512-0.169 0.375-0.575 0.781-0.95 0.95-0.4 0.188-1.113 0.188-1.512 0-0.806-0.369-1.262-1.288-1.056-2.138 0.269-1.125 1.512-1.738 2.575-1.269z" fill="white"/>
<path d="M23.556 7.656c-0.913 0.181-1.688 0.6-2.394 1.294l-0.488 0.488h-3.556c-3.85 0-4.387 0.031-5.594 0.35-3.294 0.85-6 3.344-7.125 6.556-0.094 0.275-0.206 0.525-0.237 0.55-0.119 0.087-0.806 0-1.144-0.144-0.369-0.156-0.831-0.613-0.994-0.975-0.075-0.175-0.113-0.481-0.137-1.056-0.031-0.963-0.125-1.206-0.512-1.406-0.313-0.156-0.563-0.156-0.875 0-0.4 0.206-0.5 0.475-0.5 1.356 0 0.406 0.044 0.931 0.094 1.169 0.225 1.075 0.981 2.044 1.969 2.531 0.513 0.25 1.2 0.438 1.6 0.444h0.194l-0.031 0.6c-0.063 1.238 0.219 2.85 0.731 4.15 0.519 1.325 1.231 2.406 2.3 3.481l0.706 0.706v1.75c0 1.637 0.006 1.769 0.125 2 0.081 0.163 0.213 0.294 0.375 0.375 0.231 0.119 0.363 0.125 2.781 0.125s2.55-0.006 2.781-0.125c0.381-0.194 0.5-0.488 0.5-1.219v-0.594h5.625v0.594c0 0.731 0.119 1.025 0.5 1.219 0.231 0.119 0.363 0.125 2.781 0.125s2.55-0.006 2.781-0.125c0.163-0.081 0.294-0.212 0.375-0.375 0.119-0.231 0.125-0.363 0.125-2.019v-1.769l0.406-0.363c0.725-0.637 1.581-1.756 2.131-2.775 0.244-0.45 0.25-0.456 1.306-1.181 0.587-0.4 1.188-0.825 1.344-0.944 0.519-0.387 0.494-0.219 0.5-3.625 0-2.906-0.006-3.025-0.125-3.262-0.225-0.444-0.431-0.5-1.775-0.5h-1.15l-0.281-0.488c-0.306-0.531-0.681-1.050-1.125-1.569-0.163-0.188-0.294-0.387-0.294-0.45 0-0.056 0.212-0.963 0.469-2.019s0.469-1.988 0.469-2.075c0-0.275-0.231-0.638-0.5-0.775-0.231-0.119-0.356-0.125-1.981-0.119-1.169 0.006-1.875 0.031-2.15 0.088zM26.038 9.544c-0.137 0.438-0.788 3.256-0.788 3.4 0 0.269 0.156 0.537 0.587 0.994 0.669 0.706 1.031 1.219 1.538 2.181 0.413 0.781 0.419 0.781 1.694 0.806l1.056 0.019-0.012 2.106-0.019 2.106-0.844 0.581c-1.669 1.144-1.6 1.087-1.869 1.625-0.481 0.956-0.981 1.625-1.925 2.569-0.5 0.494-0.931 0.969-0.962 1.050s-0.056 0.825-0.056 1.65v1.494h-2.813v-0.594c0-0.731-0.119-1.025-0.5-1.219-0.238-0.119-0.363-0.125-4.188-0.125s-3.95 0.006-4.188 0.125c-0.381 0.194-0.5 0.488-0.5 1.219v0.594h-2.813v-1.55c-0.006-1.8 0.012-1.731-0.656-2.306-0.238-0.206-0.619-0.569-0.844-0.806-2.256-2.4-2.862-5.931-1.556-9.069 0.95-2.275 3.156-4.181 5.581-4.806 0.988-0.256 1.306-0.275 5.431-0.275 4.594 0 4.256 0.044 4.719-0.613 0.313-0.45 0.6-0.713 1.019-0.919 0.531-0.275 0.887-0.338 1.95-0.338 0.913-0.006 0.988 0 0.956 0.1z" fill="white"/>
<path d="M12.738 13.319c-0.269 0.137-0.488 0.506-0.488 0.806 0 0.313 0.219 0.669 0.5 0.813 0.238 0.119 0.363 0.125 3.25 0.125s3.012-0.006 3.25-0.125c0.281-0.144 0.5-0.5 0.5-0.813s-0.219-0.669-0.5-0.813c-0.238-0.119-0.356-0.125-3.262-0.125-2.881 0.006-3.031 0.012-3.25 0.131z" fill="white"/>
<path d="M23.050 16.131c-0.269 0.137-0.488 0.506-0.488 0.806 0 0.313 0.219 0.669 0.5 0.813 0.131 0.069 0.331 0.125 0.438 0.125 0.475 0 0.938-0.462 0.938-0.938 0-0.313-0.219-0.669-0.5-0.813-0.306-0.156-0.587-0.156-0.887 0.006z" fill="white"/>
</symbol>
<symbol id="icon-refund" viewBox="0 0 32 32" fill="white">
<path d="M14.875 0.044c-1.444 0.138-2.506 0.344-3.669 0.713-3.662 1.175-6.7 3.538-8.75 6.813l-0.331 0.525v-1.281c0-1.206-0.013-1.294-0.144-1.531-0.163-0.294-0.575-0.531-0.925-0.531s-0.744 0.244-0.912 0.563l-0.144 0.269v2.788c0 2.775 0 2.787 0.144 3.037 0.188 0.325 0.475 0.512 0.875 0.563 0.181 0.025 1.413 0.031 2.737 0.019l2.406-0.019 0.269-0.175c0.287-0.194 0.506-0.569 0.506-0.887s-0.219-0.694-0.506-0.887c-0.263-0.175-0.269-0.175-1.506-0.194-0.681-0.012-1.237-0.044-1.237-0.063 0-0.088 0.506-0.969 0.838-1.469 0.719-1.075 1.806-2.269 2.788-3.063 5.513-4.456 13.494-4.044 18.5 0.956 2.044 2.044 3.369 4.588 3.881 7.469 0.188 1.069 0.231 2.913 0.094 4.012-0.75 5.887-5.081 10.613-10.875 11.863-1.063 0.231-1.962 0.3-3.306 0.262-2.156-0.056-3.862-0.488-5.813-1.462-2.256-1.125-4.25-2.962-5.581-5.15-1.244-2.038-2.025-4.731-2.025-6.994 0-0.55-0.181-0.906-0.563-1.106-0.531-0.281-1.144-0.1-1.425 0.425-0.144 0.269-0.15 0.306-0.113 1.212 0.294 7.613 5.987 13.925 13.631 15.106 1.156 0.175 3.312 0.194 4.437 0.031 3.544-0.512 6.681-2.075 9.156-4.544 2.512-2.519 4.050-5.65 4.575-9.344 0.106-0.744 0.1-3.2-0.006-3.969-0.706-5.125-3.575-9.4-7.994-11.925-2.381-1.363-5.231-2.1-7.981-2.063-0.444 0-0.912 0.019-1.031 0.031z"></path>
<path d="M15.669 6.469c-0.569 0.2-0.731 0.519-0.731 1.456v0.681l-0.544 0.131c-1.144 0.281-2.338 1.031-2.938 1.844-0.531 0.719-0.769 1.387-0.769 2.2 0 1.044 0.356 1.831 1.213 2.694 0.506 0.5 0.65 0.606 1.287 0.919 0.419 0.206 0.925 0.406 1.219 0.469l0.5 0.119 0.019 2.113 0.012 2.106-0.169-0.038c-0.325-0.075-1.056-0.469-1.344-0.725-0.35-0.3-0.613-0.8-0.613-1.15-0.006-0.9-0.912-1.431-1.662-0.975-0.731 0.456-0.588 1.9 0.306 3.106 0.606 0.813 1.781 1.55 2.938 1.837l0.544 0.137v0.681c0 0.769 0.069 1 0.369 1.256 0.412 0.344 0.969 0.35 1.369 0.012 0.313-0.262 0.387-0.506 0.387-1.262v-0.688l0.55-0.137c0.719-0.181 1.694-0.663 2.219-1.1 0.706-0.581 1.225-1.4 1.419-2.212 0.119-0.512 0.05-1.444-0.144-1.956-0.381-0.994-1.219-1.856-2.319-2.4-0.387-0.181-0.919-0.387-1.194-0.45l-0.5-0.119-0.019-2.113-0.012-2.106 0.169 0.037c0.325 0.075 1.056 0.469 1.344 0.725 0.35 0.3 0.613 0.8 0.613 1.15 0.006 0.9 0.913 1.431 1.663 0.975 0.731-0.456 0.587-1.9-0.306-3.106-0.606-0.813-1.8-1.563-2.938-1.844l-0.544-0.131v-0.681c0-0.431-0.031-0.756-0.087-0.881-0.106-0.263-0.413-0.519-0.712-0.606-0.287-0.075-0.3-0.075-0.594 0.031zM14.938 12.806v1.994l-0.231-0.063c-0.406-0.113-0.963-0.425-1.287-0.725-0.912-0.856-0.775-1.988 0.338-2.7 0.313-0.206 0.963-0.494 1.106-0.5 0.056 0 0.075 0.438 0.075 1.994zM17.9 17.512c1.381 0.7 1.694 2.031 0.675 2.925-0.288 0.256-1.019 0.65-1.337 0.725l-0.175 0.038v-4l0.238 0.063c0.125 0.038 0.394 0.15 0.6 0.25z"></path>
</symbol>
<symbol id="icon-dollar" viewBox="0 0 38 32" fill="white">
<path d="M36.002 23.010l0.057-17.089-31.050 0.019-0.001-1.96h32.992v19.031l-1.998-0.001zM34.995 26.017l-1.997-0.002 0.057-17.089-31.050 0.020-0.001-1.96h32.992v19.031zM32.053 28.020h-32.053v-18.030h32.053v18.030zM30.049 11.931h-28.046v14.086h28.045v-14.086zM27.045 24.515c0 0.177 0.044 0.342 0.101 0.5h-11.12c2.766 0 5.009-2.69 5.009-6.010s-2.243-6.010-5.009-6.010h11.119c-0.057 0.158-0.101 0.323-0.101 0.501 0 0.83 0.672 1.502 1.502 1.502 0.178 0 0.343-0.044 0.501-0.101v8.215c-0.158-0.056-0.323-0.101-0.501-0.101-0.829 0.001-1.501 0.674-1.501 1.504zM25.041 16.919c-0.83 0-1.502 0.896-1.502 2.003s0.672 2.003 1.502 2.003 1.502-0.896 1.502-2.003-0.672-2.003-1.502-2.003zM18.123 15.394c0.015 0.029 0.027 0.068 0.037 0.116 0.011 0.048 0.018 0.109 0.021 0.182 0.005 0.073 0.007 0.164 0.007 0.273 0 0.121-0.003 0.224-0.009 0.307-0.007 0.084-0.018 0.153-0.031 0.207-0.016 0.055-0.036 0.095-0.062 0.119-0.027 0.025-0.064 0.038-0.11 0.038s-0.118-0.029-0.219-0.087c-0.101-0.059-0.224-0.121-0.369-0.189s-0.315-0.131-0.507-0.187-0.402-0.084-0.632-0.084c-0.18 0-0.336 0.021-0.469 0.065-0.134 0.044-0.246 0.104-0.335 0.181s-0.157 0.17-0.2 0.277c-0.044 0.108-0.066 0.223-0.066 0.343 0 0.18 0.049 0.335 0.147 0.467s0.229 0.248 0.395 0.35c0.165 0.103 0.352 0.198 0.56 0.288s0.421 0.185 0.638 0.284c0.217 0.101 0.43 0.214 0.639 0.342 0.209 0.127 0.395 0.279 0.557 0.456 0.163 0.178 0.295 0.386 0.395 0.626s0.15 0.522 0.15 0.848c0 0.425-0.080 0.799-0.238 1.119-0.158 0.321-0.373 0.59-0.645 0.805s-0.588 0.376-0.951 0.484c-0.046 0.014-0.096 0.020-0.143 0.031v1.094h-0.985v-0.965c-0.013 0-0.024 0.003-0.037 0.003-0.279 0-0.539-0.023-0.779-0.068s-0.452-0.101-0.635-0.164c-0.184-0.064-0.337-0.132-0.46-0.202s-0.212-0.132-0.266-0.186-0.093-0.132-0.116-0.234-0.035-0.25-0.035-0.442c0-0.129 0.004-0.238 0.013-0.325 0.008-0.088 0.022-0.159 0.041-0.214 0.019-0.054 0.044-0.093 0.075-0.116 0.031-0.022 0.068-0.034 0.109-0.034 0.059 0 0.141 0.034 0.248 0.104 0.106 0.068 0.243 0.145 0.41 0.228s0.366 0.159 0.598 0.228c0.231 0.069 0.5 0.104 0.804 0.104 0.2 0 0.38-0.024 0.538-0.072s0.293-0.116 0.404-0.203c0.11-0.088 0.194-0.197 0.253-0.326s0.088-0.274 0.088-0.433c0-0.184-0.051-0.342-0.15-0.473-0.1-0.132-0.23-0.248-0.391-0.351s-0.343-0.198-0.547-0.287c-0.205-0.090-0.415-0.185-0.632-0.285s-0.428-0.214-0.632-0.341c-0.204-0.127-0.387-0.279-0.547-0.457-0.16-0.177-0.291-0.387-0.391-0.628-0.1-0.242-0.15-0.532-0.15-0.87 0-0.388 0.072-0.729 0.216-1.022 0.144-0.294 0.338-0.538 0.582-0.732s0.532-0.339 0.863-0.435c0.17-0.049 0.346-0.085 0.527-0.109v-1.035h0.985v1.035c0.039 0.005 0.078 0.003 0.117 0.009 0.192 0.029 0.372 0.068 0.539 0.118 0.166 0.050 0.314 0.105 0.443 0.168s0.215 0.113 0.258 0.155c0.039 0.037 0.067 0.072 0.082 0.102zM11.018 19.005c0 3.319 2.242 6.010 5.008 6.010h-11.119c0.056-0.158 0.101-0.323 0.101-0.5 0-0.83-0.673-1.503-1.502-1.503-0.178 0-0.343 0.045-0.501 0.101v-8.215c0.158 0.057 0.323 0.101 0.501 0.101 0.83 0 1.502-0.672 1.502-1.502 0-0.178-0.045-0.343-0.101-0.501h11.119c-2.766-0.001-5.008 2.69-5.008 6.009zM7.011 16.919c-0.83 0-1.502 0.896-1.502 2.003s0.673 2.003 1.502 2.003c0.83 0 1.502-0.896 1.502-2.003s-0.672-2.003-1.502-2.003z"></path>
</symbol>
<symbol id="icon-paper-plane" viewBox="0 0 28 28">
<path d="M27.563 0.172c0.328 0.234 0.484 0.609 0.422 1l-4 24c-0.047 0.297-0.234 0.547-0.5 0.703-0.141 0.078-0.313 0.125-0.484 0.125-0.125 0-0.25-0.031-0.375-0.078l-7.078-2.891-3.781 4.609c-0.187 0.234-0.469 0.359-0.766 0.359-0.109 0-0.234-0.016-0.344-0.063-0.391-0.141-0.656-0.516-0.656-0.938v-5.453l13.5-16.547-16.703 14.453-6.172-2.531c-0.359-0.141-0.594-0.469-0.625-0.859-0.016-0.375 0.172-0.734 0.5-0.922l26-15c0.156-0.094 0.328-0.141 0.5-0.141 0.203 0 0.406 0.063 0.562 0.172z"></path>
</symbol>
<symbol id="icon-filter_list" viewBox="0 0 24 24">
<path d="M6 12.984v-1.969h12v1.969h-12zM3 6h18v2.016h-18v-2.016zM9.984 18v-2.016h4.031v2.016h-4.031z"></path>
</symbol>
</defs>
</svg>
