<svg width="133" height="32" viewBox="0 0 133 32" fill="none" xmlns="http://www.w3.org/2000/svg">
<path d="M56.1965 18.8645L43.4744 30.2153C42.5606 30.9113 41.9693 31.4646 41.2884 31.768C40.948 31.9108 40.5717 32 40.1237 32H4.16155C3.05062 32 1.79633 31.5538 1.0796 30.8399C0.344943 30.126 -0.300118 29.1801 0.147841 27.3419L6.38522 3.96207C6.70775 2.8734 6.83318 1.87395 7.56784 1.16007C8.28457 0.44618 9.288 0 10.3989 0H45.7698C46.1282 0 46.5044 0.0535416 46.8449 0.142777C47.7766 0.392638 48.583 0.963748 49.1205 1.78472L57.0942 13.8316C57.1479 13.903 57.1838 13.9743 57.2375 14.0457C58.1514 15.6877 57.6676 17.7223 56.1983 18.8645H56.1965Z" fill="#EBAD00"/>
<path d="M20.4279 24.995C18.8385 24.995 17.4714 24.7326 16.3264 24.2079C15.1814 23.6832 14.2944 22.9176 13.6673 21.9092C13.0402 20.9008 12.6925 19.673 12.6262 18.2238C12.6101 17.5081 12.6012 16.746 12.6012 15.9375C12.6012 15.1291 12.6101 14.3598 12.6262 13.6263C12.6925 12.211 13.0437 11.0117 13.6798 10.0283C14.3159 9.04495 15.2101 8.29537 16.364 7.77959C17.518 7.2638 18.8726 7.00502 20.4279 7.00502C21.6822 7.00502 22.7949 7.15851 23.7643 7.46726C24.7337 7.77602 25.549 8.18829 26.2102 8.70407C26.8713 9.21986 27.3731 9.7874 27.7153 10.4031C28.0575 11.0189 28.2385 11.6274 28.2546 12.2271C28.2708 12.377 28.226 12.502 28.1167 12.6019C28.0074 12.7018 27.8784 12.7518 27.7278 12.7518H24.0653C23.8808 12.7518 23.7428 12.7233 23.6514 12.6644C23.56 12.6055 23.4794 12.518 23.4131 12.402C23.2966 12.1521 23.1246 11.8898 22.8988 11.6149C22.6731 11.3401 22.3631 11.1027 21.9707 10.9028C21.5783 10.703 21.064 10.603 20.4279 10.603C19.4746 10.603 18.7257 10.8529 18.1827 11.3526C17.6398 11.8523 17.3424 12.6519 17.2922 13.7513C17.242 15.1844 17.242 16.6336 17.2922 18.0988C17.3424 19.2642 17.6523 20.1066 18.2204 20.6224C18.7884 21.1382 19.5409 21.397 20.4781 21.397C21.1142 21.397 21.6786 21.2881 22.1714 21.0722C22.6641 20.8562 23.0529 20.5189 23.3378 20.0602C23.6227 19.6016 23.7643 19.0144 23.7643 18.2987V17.824H21.4062C21.2217 17.824 21.0676 17.7615 20.9422 17.6366C20.8167 17.5117 20.754 17.3582 20.754 17.1743V15.3254C20.754 15.1416 20.8167 14.9881 20.9422 14.8631C21.0676 14.7382 21.2217 14.6757 21.4062 14.6757H27.7278C27.9124 14.6757 28.0629 14.7382 28.1794 14.8631C28.2958 14.9881 28.355 15.1416 28.355 15.3254V18.1738C28.355 19.6069 28.0289 20.8312 27.3766 21.8467C26.7244 22.8622 25.7998 23.6422 24.6047 24.1829C23.4095 24.7237 22.0173 24.995 20.4279 24.995Z" fill="white"/>
<path d="M37.4235 24.995C35.8843 24.995 34.5476 24.7451 33.4097 24.2454C32.2719 23.7457 31.3868 22.9925 30.7507 21.9842C30.1146 20.9758 29.7634 19.714 29.6971 18.1988C29.6809 17.4831 29.672 16.7656 29.672 16.05C29.672 15.3343 29.6809 14.6097 29.6971 13.8762C29.7634 12.377 30.1199 11.1152 30.7632 10.0908C31.4065 9.06637 32.297 8.29537 33.4348 7.77959C34.5727 7.2638 35.9022 7.00502 37.4235 7.00502C38.9447 7.00502 40.2546 7.2638 41.3995 7.77959C42.5445 8.29537 43.444 9.06637 44.0963 10.0908C44.7485 11.1152 45.0997 12.377 45.1499 13.8762C45.1839 14.6097 45.2 15.3343 45.2 16.05C45.2 16.7656 45.1839 17.4831 45.1499 18.1988C45.0836 19.714 44.7324 20.9758 44.0963 21.9842C43.4602 22.9925 42.575 23.7457 41.4372 24.2454C40.2994 24.7451 38.9627 24.995 37.4235 24.995ZM37.4235 21.397C38.3104 21.397 39.0325 21.1311 39.5934 20.5974C40.1542 20.0638 40.4499 19.2143 40.4839 18.0489C40.518 17.3153 40.5341 16.6247 40.5341 15.975C40.5341 15.3254 40.518 14.6508 40.4839 13.9511C40.4499 13.1677 40.3047 12.5305 40.0449 12.0397C39.7851 11.5489 39.4303 11.1866 38.9788 10.9528C38.5272 10.719 38.0094 10.603 37.4235 10.603C36.8375 10.603 36.3448 10.719 35.8932 10.9528C35.4417 11.1866 35.0815 11.5489 34.8145 12.0397C34.5476 12.5305 34.3971 13.1677 34.363 13.9511C34.3469 14.6508 34.3379 15.3254 34.3379 15.975C34.3379 16.6247 34.3469 17.3153 34.363 18.0489C34.4132 19.2143 34.7142 20.0638 35.2661 20.5974C35.818 21.1311 36.5365 21.397 37.4235 21.397Z" fill="white"/>
<path d="M46.6425 24.995C46.4579 24.995 46.3163 24.9343 46.216 24.8147C46.1157 24.6951 46.0816 24.5417 46.1157 24.3525L49.6026 7.64752C49.6366 7.45834 49.728 7.30485 49.8785 7.18528C50.029 7.0657 50.1885 7.00502 50.3551 7.00502H53.7417C53.9084 7.00502 54.0427 7.0657 54.1431 7.18528C54.2434 7.30485 54.2775 7.46012 54.2434 7.64752L50.7565 24.3525C50.7225 24.5417 50.6347 24.6951 50.4931 24.8147C50.3516 24.9343 50.1957 24.995 50.029 24.995H46.6425Z" fill="white"/>
<path d="M61.6168 24.995C61.4323 24.995 61.2818 24.9361 61.1653 24.8201C61.0488 24.7041 60.9897 24.5542 60.9897 24.3703V10.9278H56.5244C56.3399 10.9278 56.1894 10.8654 56.0729 10.7404C55.9564 10.6155 55.8973 10.4692 55.8973 10.3032V7.62967C55.8973 7.44585 55.9564 7.29593 56.0729 7.17992C56.1894 7.06392 56.3399 7.00502 56.5244 7.00502H70.0205C70.2051 7.00502 70.3556 7.06392 70.4721 7.17992C70.5886 7.29593 70.6477 7.44585 70.6477 7.62967V10.3032C70.6477 10.4692 70.5886 10.6155 70.4721 10.7404C70.3556 10.8654 70.2051 10.9278 70.0205 10.9278H65.5553V24.3703C65.5553 24.5542 65.4962 24.7041 65.3797 24.8201C65.2632 24.9361 65.1127 24.995 64.9281 24.995H61.6168Z" fill="white"/>
<path d="M72.8803 24.995C72.6958 24.995 72.5452 24.9361 72.4288 24.8201C72.3123 24.7041 72.2532 24.5542 72.2532 24.3703V7.62967C72.2532 7.44585 72.3123 7.29593 72.4288 7.17992C72.5452 7.06392 72.6958 7.00502 72.8803 7.00502H84.5953C84.7799 7.00502 84.9304 7.06392 85.0469 7.17992C85.1634 7.29593 85.2225 7.44585 85.2225 7.62967V9.97836C85.2225 10.1622 85.1634 10.3121 85.0469 10.4281C84.9304 10.5441 84.7799 10.603 84.5953 10.603H76.593V14.1546H84.0435C84.228 14.1546 84.3785 14.2171 84.495 14.342C84.6115 14.4669 84.6706 14.6204 84.6706 14.8042V16.978C84.6706 17.144 84.6115 17.2904 84.495 17.4153C84.3785 17.5402 84.228 17.6027 84.0435 17.6027H76.593V21.397H84.796C84.9806 21.397 85.1311 21.4559 85.2476 21.5719C85.364 21.6879 85.4232 21.8378 85.4232 22.0216V24.3703C85.4232 24.5542 85.364 24.7041 85.2476 24.8201C85.1311 24.9361 84.9806 24.995 84.796 24.995H72.8803Z" fill="white"/>
<path d="M87.6773 24.995C87.4928 24.995 87.3422 24.9361 87.2258 24.8201C87.1093 24.7041 87.0502 24.5542 87.0502 24.3703V7.62967C87.0502 7.44585 87.1093 7.29593 87.2258 7.17992C87.3422 7.06392 87.4928 7.00502 87.6773 7.00502H99.3923C99.5769 7.00502 99.7274 7.06392 99.8439 7.17992C99.9604 7.29593 100.019 7.44585 100.019 7.62967V9.97836C100.019 10.1622 99.9604 10.3121 99.8439 10.4281C99.7274 10.5441 99.5769 10.603 99.3923 10.603H91.39V14.1546H98.8404C99.025 14.1546 99.1755 14.2171 99.292 14.342C99.4085 14.4669 99.4676 14.6204 99.4676 14.8042V16.978C99.4676 17.144 99.4085 17.2904 99.292 17.4153C99.1755 17.5402 99.025 17.6027 98.8404 17.6027H91.39V21.397H99.593C99.7776 21.397 99.9281 21.4559 100.045 21.5719C100.161 21.6879 100.22 21.8378 100.22 22.0216V24.3703C100.22 24.5542 100.161 24.7041 100.045 24.8201C99.9281 24.9361 99.7776 24.995 99.593 24.995H87.6773Z" fill="white"/>
<path d="M102.49 24.995C102.306 24.995 102.155 24.9361 102.039 24.8201C101.922 24.7041 101.863 24.5542 101.863 24.3703V7.62967C101.863 7.44585 101.922 7.29593 102.039 7.17992C102.155 7.06392 102.306 7.00502 102.49 7.00502H105.15C105.434 7.00502 105.639 7.06748 105.764 7.19242C105.89 7.31735 105.968 7.41372 106.002 7.47975L112.123 17.5991V7.62967C112.123 7.44585 112.182 7.29593 112.299 7.17992C112.415 7.06392 112.566 7.00502 112.75 7.00502H115.761C115.945 7.00502 116.096 7.06392 116.212 7.17992C116.329 7.29593 116.388 7.44585 116.388 7.62967V24.3703C116.388 24.5363 116.329 24.6827 116.212 24.8076C116.096 24.9325 115.945 24.995 115.761 24.995H113.077C112.81 24.995 112.613 24.9289 112.487 24.7951C112.362 24.6612 112.283 24.5702 112.249 24.5202L106.128 15.2754V24.3703C106.128 24.5542 106.069 24.7041 105.952 24.8201C105.836 24.9361 105.685 24.995 105.501 24.995H102.49Z" fill="white"/>
<path d="M125.449 24.995C123.777 24.995 122.389 24.7576 121.285 24.2829C120.181 23.8081 119.344 23.1871 118.776 22.4214C118.208 21.6558 117.907 20.8384 117.873 19.9728C117.873 19.8389 117.927 19.7194 118.036 19.6105C118.146 19.5016 118.275 19.4481 118.425 19.4481H121.586C121.821 19.4481 122 19.4891 122.125 19.573C122.251 19.6569 122.364 19.764 122.464 19.8978C122.598 20.1477 122.787 20.3886 123.028 20.6224C123.27 20.8562 123.589 21.0436 123.982 21.1846C124.374 21.3256 124.863 21.397 125.449 21.397C126.419 21.397 127.151 21.2471 127.644 20.9472C128.137 20.6474 128.384 20.2387 128.384 19.7229C128.384 19.3571 128.25 19.0519 127.983 18.8109C127.716 18.57 127.284 18.3523 126.691 18.1613C126.098 17.9703 125.308 17.774 124.32 17.5741C123.05 17.3082 121.966 16.962 121.072 16.5372C120.178 16.1124 119.495 15.5538 119.027 14.8631C118.56 14.1724 118.325 13.3104 118.325 12.2771C118.325 11.2437 118.613 10.3532 119.19 9.5536C119.767 8.75404 120.574 8.12939 121.611 7.67964C122.649 7.22989 123.878 7.00502 125.299 7.00502C126.453 7.00502 127.469 7.15494 128.347 7.45477C129.225 7.7546 129.965 8.15438 130.567 8.6541C131.169 9.15382 131.624 9.6821 131.934 10.2407C132.244 10.7993 132.407 11.3437 132.423 11.8773C132.423 12.0112 132.373 12.1307 132.273 12.2396C132.172 12.3485 132.047 12.402 131.896 12.402H128.585C128.4 12.402 128.243 12.3681 128.108 12.3021C127.974 12.236 127.857 12.1272 127.757 11.9772C127.657 11.6114 127.393 11.2901 126.967 11.0153C126.54 10.7404 125.985 10.603 125.299 10.603C124.562 10.603 123.991 10.7315 123.58 10.9903C123.17 11.2491 122.966 11.6435 122.966 12.1771C122.966 12.5109 123.079 12.8018 123.304 13.0516C123.53 13.3015 123.906 13.5175 124.433 13.7013C124.96 13.8851 125.684 14.0761 126.603 14.276C128.124 14.5597 129.354 14.9131 130.291 15.3379C131.228 15.7626 131.912 16.3123 132.348 16.9869C132.783 17.6616 133 18.5075 133 19.523C133 20.6563 132.677 21.6344 132.034 22.4589C131.391 23.2834 130.5 23.9117 129.363 24.3453C128.225 24.779 126.92 24.995 125.449 24.995Z" fill="white"/>
</svg>
