<svg width="133" height="32" viewBox="0 0 133 32" fill="none" xmlns="http://www.w3.org/2000/svg">
<path d="M131.635 18.8645L120.092 30.2153C119.263 30.9113 118.726 31.4646 118.108 31.768C117.799 31.9108 117.458 32 117.052 32H3.77587C2.76789 32 1.62985 31.5538 0.979542 30.8399C0.312975 30.126 -0.272304 29.1801 0.134139 27.3419L5.79346 3.96207C6.0861 2.8734 6.1999 1.87395 6.86647 1.16007C7.51678 0.44618 8.42721 0 9.43519 0H122.174C122.499 0 122.841 0.0535416 123.15 0.142777C123.995 0.392638 124.727 0.963748 125.215 1.78472L132.449 13.8316C132.498 13.903 132.531 13.9743 132.579 14.0457C133.408 15.6877 132.969 17.7223 131.636 18.8645H131.635Z" fill="#FEC830"/>
<path d="M18.5347 24.995C17.0926 24.995 15.8522 24.7326 14.8133 24.2079C13.7744 23.6832 12.9697 22.9176 12.4007 21.9092C11.8316 20.9008 11.5162 19.673 11.4561 18.2238C11.4414 17.5081 11.4333 16.746 11.4333 15.9375C11.4333 15.1291 11.4414 14.3598 11.4561 13.6263C11.5162 12.211 11.8349 11.0117 12.412 10.0283C12.9892 9.04495 13.8004 8.29537 14.8474 7.77959C15.8944 7.2638 17.1235 7.00502 18.5347 7.00502C19.6727 7.00502 20.6823 7.15851 21.5619 7.46726C22.4414 7.77602 23.1812 8.18829 23.7811 8.70407C24.381 9.21986 24.8362 9.7874 25.1467 10.4031C25.4572 11.0189 25.6214 11.6274 25.6361 12.2271C25.6507 12.377 25.6101 12.502 25.5109 12.6019C25.4117 12.7018 25.2947 12.7518 25.1581 12.7518H21.835C21.6676 12.7518 21.5424 12.7233 21.4595 12.6644C21.3765 12.6055 21.3034 12.518 21.2432 12.402C21.1376 12.1521 20.9815 11.8898 20.7766 11.6149C20.5718 11.3401 20.2905 11.1027 19.9345 10.9028C19.5784 10.703 19.1118 10.603 18.5347 10.603C17.6698 10.603 16.9902 10.8529 16.4976 11.3526C16.005 11.8523 15.7351 12.6519 15.6896 13.7513C15.6441 15.1844 15.6441 16.6336 15.6896 18.0988C15.7351 19.2643 16.0164 20.1066 16.5317 20.6224C17.0471 21.1382 17.7299 21.397 18.5802 21.397C19.1574 21.397 19.6695 21.2881 20.1166 21.0722C20.5637 20.8562 20.9165 20.5189 21.175 20.0602C21.4335 19.6016 21.5619 19.0144 21.5619 18.2987V17.824H19.4224C19.2549 17.824 19.1151 17.7615 19.0013 17.6366C18.8875 17.5117 18.8306 17.3582 18.8306 17.1743V15.3254C18.8306 15.1416 18.8875 14.9881 19.0013 14.8631C19.1151 14.7382 19.2549 14.6757 19.4224 14.6757H25.1581C25.3256 14.6757 25.4621 14.7382 25.5678 14.8631C25.6735 14.9881 25.7271 15.1416 25.7271 15.3254V18.1738C25.7271 19.6069 25.4312 20.8312 24.8394 21.8467C24.2477 22.8622 23.4088 23.6422 22.3244 24.1829C21.24 24.7237 19.9768 24.995 18.5347 24.995Z" fill="black"/>
<path d="M33.9552 24.995C32.5586 24.995 31.3458 24.7451 30.3134 24.2454C29.2811 23.7457 28.4779 22.9925 27.9008 21.9842C27.3236 20.9758 27.005 19.714 26.9448 18.1988C26.9302 17.4831 26.9221 16.7656 26.9221 16.05C26.9221 15.3343 26.9302 14.6097 26.9448 13.8762C27.005 12.377 27.3285 11.1152 27.9122 10.0908C28.4958 9.06637 29.3038 8.29537 30.3362 7.77959C31.3686 7.2638 32.5749 7.00502 33.9552 7.00502C35.3354 7.00502 36.5239 7.2638 37.5628 7.77959C38.6016 8.29537 39.4178 9.06637 40.0095 10.0908C40.6013 11.1152 40.92 12.377 40.9655 13.8762C40.9964 14.6097 41.011 15.3343 41.011 16.05C41.011 16.7656 40.9964 17.4831 40.9655 18.1988C40.9053 19.714 40.5867 20.9758 40.0095 21.9842C39.4324 22.9925 38.6293 23.7457 37.5969 24.2454C36.5645 24.7451 35.3517 24.995 33.9552 24.995ZM33.9552 21.397C34.7599 21.397 35.4151 21.1311 35.924 20.5974C36.4328 20.0638 36.7011 19.2143 36.732 18.0489C36.7629 17.3153 36.7775 16.6247 36.7775 15.975C36.7775 15.3254 36.7629 14.6508 36.732 13.9511C36.7011 13.1677 36.5694 12.5305 36.3337 12.0397C36.0979 11.5489 35.776 11.1866 35.3663 10.9528C34.9566 10.719 34.4868 10.603 33.9552 10.603C33.4235 10.603 32.9764 10.719 32.5667 10.9528C32.1571 11.1866 31.8303 11.5489 31.588 12.0397C31.3458 12.5305 31.2092 13.1677 31.1783 13.9511C31.1637 14.6508 31.1556 15.3254 31.1556 15.975C31.1556 16.6247 31.1637 17.3153 31.1783 18.0489C31.2239 19.2143 31.497 20.0638 31.9977 20.5974C32.4985 21.1311 33.1504 21.397 33.9552 21.397Z" fill="black"/>
<path d="M42.3198 24.995C42.1523 24.995 42.0239 24.9343 41.9328 24.8147C41.8418 24.6951 41.8109 24.5417 41.8418 24.3525L45.0055 7.64752C45.0364 7.45834 45.1193 7.30485 45.2559 7.18528C45.3925 7.0657 45.5372 7.00502 45.6884 7.00502H48.7611C48.9123 7.00502 49.0342 7.0657 49.1253 7.18528C49.2163 7.30485 49.2472 7.46012 49.2163 7.64752L46.0525 24.3525C46.0217 24.5417 45.942 24.6951 45.8136 24.8147C45.6851 24.9343 45.5437 24.995 45.3925 24.995H42.3198Z" fill="black"/>
<path d="M55.9064 24.995C55.7389 24.995 55.6023 24.9361 55.4967 24.8201C55.391 24.7041 55.3373 24.5542 55.3373 24.3703V10.9278H51.2859C51.1185 10.9278 50.9819 10.8654 50.8762 10.7404C50.7705 10.6155 50.7169 10.4692 50.7169 10.3032V7.62967C50.7169 7.44584 50.7705 7.29593 50.8762 7.17992C50.9819 7.06392 51.1185 7.00502 51.2859 7.00502H63.5312C63.6987 7.00502 63.8353 7.06392 63.9409 7.17992C64.0466 7.29593 64.1003 7.44584 64.1003 7.62967V10.3032C64.1003 10.4692 64.0466 10.6155 63.9409 10.7404C63.8353 10.8654 63.6987 10.9278 63.5312 10.9278H59.4798V24.3703C59.4798 24.5542 59.4262 24.7041 59.3205 24.8201C59.2148 24.9361 59.0782 24.995 58.9108 24.995H55.9064Z" fill="black"/>
<path d="M66.126 24.995C65.9585 24.995 65.8219 24.9361 65.7163 24.8201C65.6106 24.7041 65.5569 24.5542 65.5569 24.3703V7.62967C65.5569 7.44584 65.6106 7.29593 65.7163 7.17992C65.8219 7.06392 65.9585 7.00502 66.126 7.00502H76.7553C76.9227 7.00502 77.0593 7.06392 77.165 7.17992C77.2706 7.29593 77.3243 7.44584 77.3243 7.62967V9.97836C77.3243 10.1622 77.2706 10.3121 77.165 10.4281C77.0593 10.5441 76.9227 10.603 76.7553 10.603H69.4946V14.1546H76.2545C76.422 14.1546 76.5586 14.2171 76.6642 14.342C76.7699 14.4669 76.8236 14.6204 76.8236 14.8042V16.978C76.8236 17.144 76.7699 17.2904 76.6642 17.4153C76.5586 17.5402 76.422 17.6027 76.2545 17.6027H69.4946V21.397H76.9374C77.1048 21.397 77.2414 21.4559 77.3471 21.5719C77.4527 21.6879 77.5064 21.8378 77.5064 22.0216V24.3703C77.5064 24.5542 77.4527 24.7041 77.3471 24.8201C77.2414 24.9361 77.1048 24.995 76.9374 24.995H66.126Z" fill="black"/>
<path d="M79.5516 24.995C79.3842 24.995 79.2476 24.9361 79.1419 24.8201C79.0362 24.7041 78.9826 24.5542 78.9826 24.3703V7.62967C78.9826 7.44584 79.0362 7.29593 79.1419 7.17992C79.2476 7.06392 79.3842 7.00502 79.5516 7.00502H90.1809C90.3484 7.00502 90.485 7.06392 90.5906 7.17992C90.6963 7.29593 90.7499 7.44584 90.7499 7.62967V9.97836C90.7499 10.1622 90.6963 10.3121 90.5906 10.4281C90.485 10.5441 90.3484 10.603 90.1809 10.603H82.9202V14.1546H89.6802C89.8476 14.1546 89.9842 14.2171 90.0899 14.342C90.1956 14.4669 90.2492 14.6204 90.2492 14.8042V16.978C90.2492 17.144 90.1956 17.2904 90.0899 17.4153C89.9842 17.5402 89.8476 17.6027 89.6802 17.6027H82.9202V21.397H90.363C90.5305 21.397 90.667 21.4559 90.7727 21.5719C90.8784 21.6879 90.932 21.8378 90.932 22.0216V24.3703C90.932 24.5542 90.8784 24.7041 90.7727 24.8201C90.667 24.9361 90.5305 24.995 90.363 24.995H79.5516Z" fill="black"/>
<path d="M92.9919 24.995C92.8244 24.995 92.6879 24.9361 92.5822 24.8201C92.4765 24.7041 92.4229 24.5542 92.4229 24.3703V7.62967C92.4229 7.44584 92.4765 7.29593 92.5822 7.17992C92.6879 7.06392 92.8244 7.00502 92.9919 7.00502H95.4045C95.663 7.00502 95.8484 7.06748 95.9622 7.19242C96.076 7.31735 96.1475 7.41372 96.1784 7.47975L101.732 17.5991V7.62967C101.732 7.44584 101.786 7.29593 101.891 7.17992C101.997 7.06392 102.134 7.00502 102.301 7.00502H105.032C105.2 7.00502 105.336 7.06392 105.442 7.17992C105.548 7.29593 105.601 7.44584 105.601 7.62967V24.3703C105.601 24.5363 105.548 24.6827 105.442 24.8076C105.336 24.9325 105.2 24.995 105.032 24.995H102.597C102.355 24.995 102.176 24.9289 102.062 24.7951C101.948 24.6612 101.877 24.5702 101.846 24.5202L96.2922 15.2754V24.3703C96.2922 24.5542 96.2386 24.7041 96.1329 24.8201C96.0272 24.9361 95.8906 24.995 95.7232 24.995H92.9919Z" fill="black"/>
<path d="M113.823 24.995C112.306 24.995 111.046 24.7576 110.045 24.2829C109.043 23.8081 108.284 23.1871 107.769 22.4214C107.253 21.6558 106.98 20.8384 106.949 19.9728C106.949 19.8389 106.998 19.7194 107.097 19.6105C107.196 19.5016 107.313 19.4481 107.45 19.4481H110.318C110.531 19.4481 110.693 19.4891 110.807 19.573C110.921 19.6569 111.023 19.764 111.114 19.8978C111.236 20.1477 111.407 20.3886 111.627 20.6224C111.846 20.8562 112.135 21.0436 112.491 21.1846C112.847 21.3256 113.291 21.397 113.823 21.397C114.702 21.397 115.367 21.2471 115.814 20.9472C116.262 20.6474 116.486 20.2387 116.486 19.7229C116.486 19.3571 116.364 19.0519 116.122 18.8109C115.88 18.57 115.488 18.3523 114.95 18.1613C114.411 17.9703 113.694 17.774 112.799 17.5741C111.646 17.3082 110.662 16.962 109.851 16.5372C109.04 16.1124 108.42 15.5538 107.996 14.8631C107.572 14.1724 107.359 13.3104 107.359 12.2771C107.359 11.2437 107.621 10.3532 108.144 9.5536C108.668 8.75404 109.399 8.12939 110.341 7.67964C111.282 7.22989 112.397 7.00502 113.686 7.00502C114.733 7.00502 115.655 7.15494 116.452 7.45477C117.248 7.7546 117.92 8.15438 118.466 8.6541C119.012 9.15382 119.425 9.6821 119.707 10.2407C119.988 10.7993 120.136 11.3437 120.15 11.8773C120.15 12.0112 120.105 12.1307 120.014 12.2396C119.923 12.3485 119.809 12.402 119.672 12.402H116.668C116.501 12.402 116.358 12.3681 116.236 12.3021C116.114 12.236 116.008 12.1272 115.917 11.9772C115.826 11.6114 115.587 11.2901 115.2 11.0153C114.813 10.7404 114.309 10.603 113.686 10.603C113.018 10.603 112.5 10.7315 112.127 10.9903C111.755 11.2491 111.57 11.6435 111.57 12.1771C111.57 12.5109 111.672 12.8018 111.877 13.0516C112.082 13.3015 112.423 13.5175 112.901 13.7013C113.379 13.8851 114.036 14.0761 114.87 14.276C116.25 14.5597 117.365 14.9131 118.216 15.3379C119.066 15.7626 119.687 16.3123 120.082 16.9869C120.477 17.6616 120.674 18.5075 120.674 19.523C120.674 20.6563 120.381 21.6344 119.798 22.4589C119.214 23.2834 118.406 23.9117 117.374 24.3453C116.341 24.779 115.158 24.995 113.823 24.995Z" fill="black"/>
</svg>
