<svg width="124" height="32" viewBox="0 0 124 32" fill="none" xmlns="http://www.w3.org/2000/svg">
<path d="M122.334 0L46.8378 4.60928L48.5034 32L124 27.3907L122.334 0Z" fill="#FEC830"/>
<path d="M57.1019 12.1879L59.6347 12.0325L60.3367 23.5763L57.804 23.7316L57.1019 12.1879Z" fill="white"/>
<path d="M66.6319 13.9603L63.1264 14.175L62.9842 11.8315L72.528 11.2468L72.6702 13.5903L69.1647 13.805L69.7245 23.0098L67.1917 23.1652L66.6273 13.9649L66.6319 13.9603Z" fill="white"/>
<path d="M73.4732 18.3549C73.3217 15.8287 74.9873 13.6451 77.5568 13.4852C80.5025 13.3071 81.9891 15.5135 82.1451 18.026C82.1589 18.227 82.1589 18.4554 82.1497 18.6884L76.0151 19.0675C76.3317 20.1867 77.1576 20.7395 78.2772 20.6664C79.1214 20.6116 79.7087 20.3101 80.3603 19.6294L81.8698 20.808C81.1127 21.8815 79.9611 22.5804 78.3643 22.6809C75.7123 22.8454 73.6429 21.1004 73.4777 18.3595L73.4732 18.3549ZM79.6491 17.2677C79.4334 16.153 78.7314 15.4358 77.6761 15.5044C76.6391 15.5683 76.0105 16.3495 75.8774 17.5006L79.6445 17.2722L79.6491 17.2677Z" fill="white"/>
<path d="M84.5494 17.6788C84.398 15.1526 86.0636 12.969 88.633 12.8091C91.5788 12.631 93.0654 14.8374 93.2214 17.3499C93.2352 17.5509 93.2352 17.7793 93.226 18.0123L87.0914 18.3914C87.408 19.5106 88.2339 20.0634 89.3534 19.9903C90.1977 19.9355 90.785 19.634 91.4365 18.9533L92.9461 20.1319C92.1844 21.2054 91.0373 21.9044 89.4406 22.0049C86.7885 22.1693 84.7192 20.4243 84.554 17.6834L84.5494 17.6788ZM90.7253 16.5916C90.5051 15.4769 89.8077 14.7597 88.7523 14.8283C87.7154 14.8922 87.0868 15.6734 86.9583 16.8246L90.7253 16.5961V16.5916Z" fill="white"/>
<path d="M95.7863 12.5442L98.2915 12.3889L98.3695 13.6405C98.8972 12.8594 99.5992 12.1422 100.866 12.0645C102.756 11.9458 103.94 13.1335 104.064 15.1617L104.412 20.8857L101.907 21.041L101.609 16.1073C101.54 14.9196 100.939 14.344 99.9846 14.4034C99.0302 14.4628 98.4613 15.1115 98.5301 16.2992L98.8283 21.2328L96.3231 21.3881L95.7863 12.5487V12.5442Z" fill="white"/>
<path d="M106.798 19.5655L107.771 17.8478C108.767 18.4874 109.79 18.7843 110.616 18.734C111.341 18.6884 111.653 18.4051 111.63 17.9803C111.593 17.4367 110.731 17.3088 109.739 17.0712C108.487 16.7834 107.046 16.2901 106.941 14.545C106.83 12.7452 108.221 11.6534 109.996 11.5483C111.116 11.4752 112.359 11.7859 113.355 12.3706L112.506 14.1567C111.607 13.6954 110.708 13.435 110.07 13.4761C109.464 13.5126 109.161 13.7959 109.184 14.1796C109.212 14.6775 110.07 14.8511 111.047 15.1252C112.309 15.4632 113.773 15.9703 113.874 17.6148C113.993 19.5792 112.584 20.5613 110.675 20.6709C109.432 20.7486 108.023 20.4243 106.798 19.5655Z" fill="white"/>
<path d="M49.4211 12.7315L40.0884 0.726338L0 3.17944L1.66557 30.5702L41.7539 28.1216L49.5908 15.4678L50.458 14.0517L49.4211 12.736V12.7315Z" fill="#1A1A1A"/>
<path d="M21.3633 14.4537L15.8986 14.7872L16.0638 17.4367L18.6149 17.2814L18.6929 18.5787C18.1423 18.9944 17.4128 19.2411 16.5731 19.2959C14.6919 19.4147 13.2282 18.0488 13.1043 16.0617C13.0493 15.1526 13.3154 14.2755 13.8614 13.5949C14.4028 12.9188 15.1553 12.5213 15.9766 12.4711C17.2522 12.3934 18.023 12.7543 18.9132 13.4121L19.1013 13.5492L20.8494 11.1509L20.6705 11.0138C19.2297 9.94033 17.8487 9.54747 15.894 9.66624C12.3794 9.88094 9.79153 12.7726 10.0026 16.2444C10.2137 19.6842 12.7923 22.0734 16.2106 22.0734C16.362 22.0734 16.5135 22.0734 16.6649 22.0597C18.5599 21.9455 20.2254 21.2054 21.6203 19.867L21.6983 19.7939L21.3725 14.4445L21.3633 14.4537Z" fill="white"/>
<path d="M37.9961 14.6364C37.7758 11.1006 34.8944 8.59729 31.2787 8.82113C27.7044 9.0404 25.0753 11.932 25.2864 15.4084C25.4928 18.798 28.1587 21.2374 31.5678 21.2374C31.71 21.2374 31.8569 21.2374 31.9991 21.2237C35.5688 21.0044 38.2026 18.1128 37.9915 14.6364H37.9961ZM31.8661 18.4234C31.0034 18.4737 30.173 18.1996 29.5443 17.6423C28.8607 17.0393 28.4569 16.1804 28.3973 15.2211C28.3422 14.2892 28.6083 13.4121 29.1498 12.7498C29.7004 12.0782 30.5079 11.6762 31.4164 11.6214C31.4852 11.6214 31.554 11.6168 31.6229 11.6168C32.4121 11.6168 33.1554 11.8909 33.7381 12.4071C34.4218 13.0101 34.8255 13.869 34.8852 14.8283C35.0045 16.7652 33.706 18.3092 31.8661 18.428V18.4234Z" fill="white"/>
</svg>
