<svg width="366" height="345" viewBox="0 0 366 345" fill="none" xmlns="http://www.w3.org/2000/svg">
<path d="M273.437 298.307L254.125 337.831L260.652 341.029L279.964 301.504L273.437 298.307Z" fill="#703A25"/>
<path d="M103.63 308.254L48.421 328.89L51.272 336.538L106.481 315.902L103.63 308.254Z" fill="#F9F2F0"/>
<path d="M168.313 277.696L147.635 342.456L155.581 345L176.258 280.24L168.313 277.696Z" fill="#F0C8C0"/>
<path d="M284.774 85.8933L278.511 93.4461L359.738 160.971L366 153.418L284.774 85.8933Z" fill="#703A25"/>
<path d="M341.543 202.922L277.312 248.544L282.139 255.358L346.37 209.735L341.543 202.922Z" fill="#F9F2F0"/>
<path d="M116.023 86.5324L108.868 90.8284L138.602 140.476L145.756 136.18L116.023 86.5324Z" fill="#703A25"/>
<path d="M200.464 238.735L192.822 242.909L221.088 294.798L228.729 290.625L200.464 238.735Z" fill="#F9F2F0"/>
<path d="M64.7286 251.223L61.0625 258.726L119.289 287.251L122.955 279.748L64.7286 251.223Z" fill="#F0C8C0"/>
<path d="M273.437 298.307L254.125 337.831L260.652 341.029L279.964 301.504L273.437 298.307Z" fill="#F0C8C0"/>
<path d="M280.138 20.6204L260.827 60.1447L267.354 63.3423L286.665 23.8179L280.138 20.6204Z" fill="#703A25"/>
<path d="M110.359 30.554L55.1501 51.1901L58.0011 58.8378L113.21 38.2016L110.359 30.554Z" fill="#F9F2F0"/>
<path d="M103.63 308.254L48.421 328.89L51.272 336.538L106.481 315.902L103.63 308.254Z" fill="#703A25"/>
<path d="M7.44481 79.1723L1.18268 86.7251L82.4091 154.25L88.6712 146.697L7.44481 79.1723Z" fill="#703A25"/>
<path d="M284.774 85.8933L278.511 93.4461L359.738 160.971L366 153.418L284.774 85.8933Z" fill="#F9F2F0"/>
<path d="M341.543 202.922L277.312 248.544L282.139 255.358L346.37 209.735L341.543 202.922Z" fill="#703A25"/>
<path d="M64.2309 196.224L0 241.846L4.82651 248.66L69.0574 203.037L64.2309 196.224Z" fill="#F9F2F0"/>
<path d="M175.025 0L154.347 64.7599L162.293 67.3037L182.97 2.54381L175.025 0Z" fill="#F0C8C0"/>
<path d="M168.313 277.696L147.635 342.456L155.581 345L176.258 280.24L168.313 277.696Z" fill="#703A25"/>
<path d="M117.974 162.53L112.903 214.226L119.728 214.898L124.799 163.201L117.974 162.53Z" fill="#F0C8C0"/>
<path d="M273.518 128.544L231.895 225.693L240.904 229.563L282.527 132.415L273.518 128.544Z" fill="#F0C8C0"/>
<path d="M229.126 48.2644L222.136 49.6058L236.3 123.599L243.289 122.258L229.126 48.2644Z" fill="#703A25"/>
<path d="M200.892 184.35L142.612 225.747L146.346 231.019L204.627 189.622L200.892 184.35Z" fill="#703A25"/>
<path d="M175.048 121.937L172.868 127.677L213.366 143.097L215.546 137.357L175.048 121.937Z" fill="#F9F2F0"/>
<path d="M7.44481 79.1723L1.18268 86.7251L82.4091 154.25L88.6712 146.697L7.44481 79.1723Z" fill="#F9F2F0"/>
<path d="M64.2309 196.224L0 241.846L4.82651 248.66L69.0574 203.037L64.2309 196.224Z" fill="#703A25"/>
<path d="M280.138 20.6204L260.827 60.1447L267.354 63.3423L286.665 23.8179L280.138 20.6204Z" fill="#F0C8C0"/>
<path d="M110.359 30.554L55.1501 51.1901L58.0011 58.8378L113.21 38.2016L110.359 30.554Z" fill="#703A25"/>
<path d="M175.025 0L154.347 64.7599L162.293 67.3037L182.97 2.54381L175.025 0Z" fill="#703A25"/>
</svg>
