<svg width="495" height="466" viewBox="0 0 495 466" fill="none" xmlns="http://www.w3.org/2000/svg">
<path d="M125.188 63.0699L151.306 9.68332L142.479 5.36434L116.361 58.7509L125.188 63.0699Z" fill="#703A25"/>
<path d="M354.845 49.6335L429.513 21.7598L425.657 11.4299L350.989 39.3036L354.845 49.6335Z" fill="#F9F2F0"/>
<path d="M267.364 90.9088L295.33 3.43599L284.583 -5.12663e-06L256.618 87.4728L267.364 90.9088Z" fill="#F9F2F0"/>
<path d="M109.855 349.982L118.325 339.78L8.46925 248.573L-2.41795e-06 258.774L109.855 349.982Z" fill="#703A25"/>
<path d="M33.077 191.909L119.947 130.285L113.419 121.082L26.5494 182.706L33.077 191.909Z" fill="#F9F2F0"/>
<path d="M338.084 349.118L347.76 343.316L307.547 276.255L297.871 282.058L338.084 349.118Z" fill="#703A25"/>
<path d="M223.88 143.534L234.216 137.897L195.988 67.8088L185.653 73.4462L223.88 143.534Z" fill="#F9F2F0"/>
<path d="M407.457 126.667L412.416 116.532L333.667 78.003L328.709 88.1379L407.457 126.667Z" fill="#F9F2F0"/>
<path d="M125.188 63.0699L151.306 9.68332L142.479 5.36434L116.361 58.7509L125.188 63.0699Z" fill="#F9F2F0"/>
<path d="M116.125 438.148L142.243 384.761L133.415 380.442L107.297 433.829L116.125 438.148Z" fill="#703A25"/>
<path d="M345.744 424.73L420.412 396.856L416.556 386.526L341.888 414.4L345.744 424.73Z" fill="#F9F2F0"/>
<path d="M354.845 49.6335L429.513 21.7598L425.657 11.4299L350.989 39.3036L354.845 49.6335Z" fill="#703A25"/>
<path d="M484.931 359.06L493.4 348.858L383.545 257.651L375.076 267.852L484.931 359.06Z" fill="#703A25"/>
<path d="M109.855 349.982L118.325 339.78L8.46925 248.573L-2.41795e-06 258.774L109.855 349.982Z" fill="#F9F2F0"/>
<path d="M33.077 191.909L119.947 130.285L113.419 121.082L26.5494 182.706L33.077 191.909Z" fill="#703A25"/>
<path d="M408.13 200.956L495 139.332L488.472 130.129L401.603 191.753L408.13 200.956Z" fill="#F9F2F0"/>
<path d="M258.286 466L286.252 378.527L275.505 375.091L247.54 462.564L258.286 466Z" fill="#F9F2F0"/>
<path d="M267.364 90.9088L295.33 3.43599L284.583 -5.12663e-06L256.618 87.4728L267.364 90.9088Z" fill="#703A25"/>
<path d="M335.445 246.467L342.303 176.639L333.073 175.733L326.214 245.56L335.445 246.467Z" fill="#F9F2F0"/>
<path d="M125.078 292.372L181.372 161.151L169.187 155.924L112.894 287.144L125.078 292.372Z" fill="#F9F2F0"/>
<path d="M185.117 400.808L194.57 398.996L175.414 299.052L165.961 300.864L185.117 400.808Z" fill="#703A25"/>
<path d="M223.301 216.994L302.124 161.079L297.073 153.958L218.25 209.873L223.301 216.994Z" fill="#703A25"/>
<path d="M258.255 301.297L261.203 293.544L206.431 272.715L203.483 280.468L258.255 301.297Z" fill="#F9F2F0"/>
<path d="M484.931 359.06L493.4 348.858L383.545 257.651L375.076 267.852L484.931 359.06Z" fill="#F9F2F0"/>
<path d="M408.13 200.956L495 139.332L488.472 130.129L401.603 191.753L408.13 200.956Z" fill="#703A25"/>
<path d="M116.125 438.148L142.243 384.761L133.415 380.442L107.297 433.829L116.125 438.148Z" fill="#F9F2F0"/>
<path d="M345.744 424.73L420.412 396.856L416.556 386.526L341.888 414.4L345.744 424.73Z" fill="#703A25"/>
<path d="M258.286 466L286.252 378.527L275.505 375.091L247.54 462.564L258.286 466Z" fill="#703A25"/>
</svg>
