<svg width="423" height="399" viewBox="0 0 423 399" fill="none" xmlns="http://www.w3.org/2000/svg">
<g opacity="0.2">
<path d="M316.021 344.998L293.702 390.709L301.246 394.407L323.565 348.696L316.021 344.998Z" fill="#F0C8C0"/>
<path d="M119.769 356.503L55.962 380.369L59.257 389.213L123.064 365.347L119.769 356.503Z" fill="white"/>
<path d="M194.525 321.162L170.627 396.058L179.811 399L203.708 324.104L194.525 321.162Z" fill="#F9F2F0"/>
<path d="M329.124 99.3375L321.886 108.072L415.763 186.166L423 177.431L329.124 99.3375Z" fill="#703A25"/>
<path d="M394.734 234.683L320.5 287.447L326.078 295.327L400.312 242.563L394.734 234.683Z" fill="white"/>
<path d="M134.092 100.077L125.823 105.045L160.187 162.464L168.456 157.495L134.092 100.077Z" fill="#F0C8C0"/>
<path d="M231.684 276.103L222.852 280.93L255.519 340.941L264.351 336.114L231.684 276.103Z" fill="white"/>
<path d="M74.8093 290.545L70.5722 299.223L137.866 332.212L142.103 323.534L74.8093 290.545Z" fill="#F9F2F0"/>
<path d="M316.021 344.998L293.702 390.709L301.246 394.407L323.565 348.696L316.021 344.998Z" fill="#F9F2F0"/>
<path d="M323.766 23.8479L301.447 69.5587L308.991 73.2567L331.31 27.5459L323.766 23.8479Z" fill="#F0C8C0"/>
<path d="M127.546 35.3364L63.7391 59.2025L67.034 68.0471L130.841 44.181L127.546 35.3364Z" fill="white"/>
<path d="M119.769 356.503L55.962 380.369L59.257 389.213L123.064 365.347L119.769 356.503Z" fill="#703A25"/>
<path d="M8.60424 91.5645L1.36687 100.299L95.2433 178.393L102.481 169.658L8.60424 91.5645Z" fill="#703A25"/>
<path d="M329.124 99.3375L321.886 108.072L415.763 186.166L423 177.431L329.124 99.3375Z" fill="white"/>
<path d="M394.734 234.683L320.5 287.447L326.078 295.327L400.312 242.563L394.734 234.683Z" fill="#F0C8C0"/>
<path d="M74.2341 226.937L0 279.701L5.57818 287.58L79.8123 234.817L74.2341 226.937Z" fill="white"/>
<path d="M202.283 0L178.385 74.8962L187.568 77.8382L211.466 2.94198L202.283 0Z" fill="#F9F2F0"/>
<path d="M194.525 321.162L170.627 396.058L179.811 399L203.708 324.104L194.525 321.162Z" fill="#F0C8C0"/>
<path d="M136.347 187.969L130.486 247.757L138.374 248.534L144.235 188.745L136.347 187.969Z" fill="#F9F2F0"/>
<path d="M316.115 148.664L268.01 261.019L278.422 265.495L326.527 153.14L316.115 148.664Z" fill="#F9F2F0"/>
<path d="M264.81 55.8188L256.732 57.3702L273.1 142.945L281.178 141.394L264.81 55.8188Z" fill="#703A25"/>
<path d="M232.179 213.205L164.822 261.081L169.138 267.178L236.495 219.302L232.179 213.205Z" fill="#703A25"/>
<path d="M202.309 141.022L199.79 147.661L246.595 165.495L249.115 158.856L202.309 141.022Z" fill="white"/>
<path d="M8.60424 91.5645L1.36687 100.299L95.2433 178.393L102.481 169.658L8.60424 91.5645Z" fill="white"/>
<path d="M74.2341 226.937L0 279.701L5.57818 287.58L79.8123 234.817L74.2341 226.937Z" fill="#F0C8C0"/>
<path d="M323.766 23.8479L301.447 69.5587L308.991 73.2567L331.31 27.5459L323.766 23.8479Z" fill="#F9F2F0"/>
<path d="M127.546 35.3364L63.7391 59.2025L67.034 68.0471L130.841 44.181L127.546 35.3364Z" fill="#703A25"/>
<path d="M202.283 0L178.385 74.8962L187.568 77.8382L211.466 2.94198L202.283 0Z" fill="#F0C8C0"/>
</g>
</svg>
