<svg width="1080" height="339" viewBox="0 0 1080 339" fill="none" xmlns="http://www.w3.org/2000/svg">
<g opacity="0.2">
<path d="M268.954 293.119L249.959 331.956L256.379 335.098L275.374 296.261L268.954 293.119Z" fill="#703A25"/>
<path d="M101.931 302.893L47.6273 323.171L50.4315 330.685L104.735 310.408L101.931 302.893Z" fill="white"/>
<path d="M165.553 272.867L145.215 336.5L153.03 339L173.369 275.366L165.553 272.867Z" fill="#F0C8C0"/>
<path d="M280.105 84.3995L273.946 91.8209L353.841 158.171L360 150.75L280.105 84.3995Z" fill="#F9F2F0"/>
<path d="M335.944 199.393L272.766 244.222L277.513 250.917L340.691 206.087L335.944 199.393Z" fill="white"/>
<path d="M114.121 85.0275L107.084 89.2488L136.329 138.033L143.366 133.812L114.121 85.0275Z" fill="#703A25"/>
<path d="M197.178 234.583L189.661 238.685L217.463 289.671L224.98 285.57L197.178 234.583Z" fill="white"/>
<path d="M63.6675 246.854L60.0614 254.227L117.333 282.255L120.939 274.883L63.6675 246.854Z" fill="#F0C8C0"/>
<path d="M268.954 293.119L249.959 331.956L256.379 335.098L275.374 296.261L268.954 293.119Z" fill="#F0C8C0"/>
<path d="M275.546 20.2618L256.551 59.0988L262.971 62.2407L281.966 23.4037L275.546 20.2618Z" fill="#703A25"/>
<path d="M108.55 30.0226L54.246 50.2999L57.0503 57.8145L111.354 37.5373L108.55 30.0226Z" fill="white"/>
<path d="M101.931 302.893L47.6273 323.171L50.4315 330.685L104.735 310.408L101.931 302.893Z" fill="#F9F2F0"/>
<path d="M7.32276 77.7954L1.16329 85.2169L81.0581 151.567L87.2176 144.146L7.32276 77.7954Z" fill="#F9F2F0"/>
<path d="M280.105 84.3995L273.946 91.8209L353.841 158.171L360 150.75L280.105 84.3995Z" fill="white"/>
<path d="M335.944 199.393L272.766 244.222L277.513 250.917L340.691 206.087L335.944 199.393Z" fill="#703A25"/>
<path d="M63.178 192.811L0 237.64L4.74738 244.335L67.9253 199.506L63.178 192.811Z" fill="white"/>
<path d="M172.155 1.41701e-05L151.817 63.6336L159.632 66.1332L179.971 2.49959L172.155 1.41701e-05Z" fill="#F0C8C0"/>
<path d="M165.553 272.867L145.215 336.5L153.03 339L173.369 275.366L165.553 272.867Z" fill="#703A25"/>
<path d="M116.04 159.703L111.052 210.501L117.765 211.16L122.753 160.363L116.04 159.703Z" fill="#F0C8C0"/>
<path d="M269.034 126.309L228.093 221.768L236.955 225.571L277.896 130.112L269.034 126.309Z" fill="#F0C8C0"/>
<path d="M225.37 47.425L218.495 48.7431L232.426 121.449L239.301 120.131L225.37 47.425Z" fill="#F9F2F0"/>
<path d="M197.599 181.144L140.274 221.821L143.947 227.001L201.273 186.324L197.599 181.144Z" fill="#F9F2F0"/>
<path d="M172.178 119.816L170.034 125.456L209.868 140.609L212.013 134.968L172.178 119.816Z" fill="white"/>
<path d="M7.32276 77.7954L1.16329 85.2169L81.0581 151.567L87.2176 144.146L7.32276 77.7954Z" fill="white"/>
<path d="M63.178 192.811L0 237.64L4.74738 244.335L67.9253 199.506L63.178 192.811Z" fill="#703A25"/>
<path d="M275.546 20.2618L256.551 59.0988L262.971 62.2407L281.966 23.4037L275.546 20.2618Z" fill="#F0C8C0"/>
<path d="M108.55 30.0226L54.246 50.2999L57.0503 57.8145L111.354 37.5373L108.55 30.0226Z" fill="#F9F2F0"/>
<path d="M172.155 1.41701e-05L151.817 63.6336L159.632 66.1332L179.971 2.49959L172.155 1.41701e-05Z" fill="#703A25"/>
<path d="M628.954 45.8813L609.959 7.04432L616.379 3.9024L635.374 42.7394L628.954 45.8813Z" fill="#703A25"/>
<path d="M461.931 36.1068L407.627 15.8295L410.432 8.31489L464.735 28.5921L461.931 36.1068Z" fill="white"/>
<path d="M525.553 66.1332L505.215 2.49957L513.03 0L533.369 63.6336L525.553 66.1332Z" fill="#F0C8C0"/>
<path d="M640.105 254.601L633.946 247.179L713.841 180.829L720 188.25L640.105 254.601Z" fill="#F9F2F0"/>
<path d="M695.944 139.607L632.766 94.7782L637.513 88.0835L700.691 132.913L695.944 139.607Z" fill="white"/>
<path d="M474.121 253.972L467.084 249.751L496.329 200.967L503.366 205.188L474.121 253.972Z" fill="#703A25"/>
<path d="M557.178 104.417L549.661 100.315L577.463 49.3287L584.98 53.4298L557.178 104.417Z" fill="white"/>
<path d="M423.667 92.1461L420.061 84.7733L477.333 56.7447L480.939 64.1175L423.667 92.1461Z" fill="#F0C8C0"/>
<path d="M628.954 45.8813L609.959 7.04432L616.379 3.9024L635.374 42.7394L628.954 45.8813Z" fill="#F0C8C0"/>
<path d="M635.546 318.738L616.551 279.901L622.971 276.759L641.966 315.596L635.546 318.738Z" fill="#703A25"/>
<path d="M468.55 308.977L414.246 288.7L417.05 281.186L471.354 301.463L468.55 308.977Z" fill="white"/>
<path d="M461.931 36.1068L407.627 15.8295L410.432 8.31489L464.735 28.5921L461.931 36.1068Z" fill="#F9F2F0"/>
<path d="M367.323 261.205L361.163 253.783L441.058 187.433L447.218 194.854L367.323 261.205Z" fill="#F9F2F0"/>
<path d="M640.105 254.601L633.946 247.179L713.841 180.829L720 188.25L640.105 254.601Z" fill="white"/>
<path d="M695.944 139.607L632.766 94.7782L637.513 88.0835L700.691 132.913L695.944 139.607Z" fill="#703A25"/>
<path d="M423.178 146.189L360 101.36L364.747 94.6649L427.925 139.494L423.178 146.189Z" fill="white"/>
<path d="M532.155 339L511.817 275.366L519.632 272.867L539.971 336.5L532.155 339Z" fill="#F0C8C0"/>
<path d="M525.553 66.1332L505.215 2.49957L513.03 0L533.369 63.6336L525.553 66.1332Z" fill="#703A25"/>
<path d="M476.04 179.297L471.052 128.499L477.765 127.84L482.753 178.637L476.04 179.297Z" fill="#F0C8C0"/>
<path d="M629.034 212.691L588.093 117.232L596.955 113.429L637.896 208.888L629.034 212.691Z" fill="#F0C8C0"/>
<path d="M585.37 291.575L578.495 290.257L592.426 217.551L599.301 218.869L585.37 291.575Z" fill="#F9F2F0"/>
<path d="M557.599 157.856L500.274 117.179L503.947 111.999L561.273 152.676L557.599 157.856Z" fill="#F9F2F0"/>
<path d="M532.178 219.184L530.034 213.544L569.868 198.392L572.013 204.032L532.178 219.184Z" fill="white"/>
<path d="M367.323 261.205L361.163 253.783L441.058 187.433L447.218 194.854L367.323 261.205Z" fill="white"/>
<path d="M423.178 146.189L360 101.36L364.747 94.6649L427.925 139.494L423.178 146.189Z" fill="#703A25"/>
<path d="M635.546 318.738L616.551 279.901L622.971 276.759L641.966 315.596L635.546 318.738Z" fill="#F0C8C0"/>
<path d="M468.55 308.977L414.246 288.7L417.05 281.186L471.354 301.463L468.55 308.977Z" fill="#F9F2F0"/>
<path d="M532.155 339L511.817 275.366L519.632 272.867L539.971 336.5L532.155 339Z" fill="#703A25"/>
<path d="M988.954 293.119L969.959 331.956L976.379 335.098L995.374 296.261L988.954 293.119Z" fill="#703A25"/>
<path d="M821.931 302.893L767.627 323.171L770.432 330.685L824.735 310.408L821.931 302.893Z" fill="white"/>
<path d="M885.553 272.867L865.215 336.5L873.03 339L893.369 275.366L885.553 272.867Z" fill="#F0C8C0"/>
<path d="M1000.11 84.3995L993.946 91.8209L1073.84 158.171L1080 150.75L1000.11 84.3995Z" fill="#F9F2F0"/>
<path d="M1055.94 199.393L992.766 244.222L997.513 250.917L1060.69 206.087L1055.94 199.393Z" fill="white"/>
<path d="M834.121 85.0275L827.084 89.2488L856.329 138.033L863.367 133.812L834.121 85.0275Z" fill="#703A25"/>
<path d="M917.178 234.583L909.661 238.685L937.463 289.671L944.98 285.57L917.178 234.583Z" fill="white"/>
<path d="M783.667 246.854L780.061 254.227L837.333 282.255L840.939 274.883L783.667 246.854Z" fill="#F0C8C0"/>
<path d="M988.954 293.119L969.959 331.956L976.379 335.098L995.374 296.261L988.954 293.119Z" fill="#F0C8C0"/>
<path d="M995.546 20.2618L976.551 59.0988L982.971 62.2407L1001.97 23.4037L995.546 20.2618Z" fill="#703A25"/>
<path d="M828.55 30.0226L774.246 50.2999L777.05 57.8145L831.354 37.5373L828.55 30.0226Z" fill="white"/>
<path d="M821.931 302.893L767.627 323.171L770.432 330.685L824.735 310.408L821.931 302.893Z" fill="#F9F2F0"/>
<path d="M727.323 77.7954L721.163 85.2169L801.058 151.567L807.218 144.146L727.323 77.7954Z" fill="#F9F2F0"/>
<path d="M1000.11 84.3995L993.946 91.8209L1073.84 158.171L1080 150.75L1000.11 84.3995Z" fill="white"/>
<path d="M1055.94 199.393L992.766 244.222L997.513 250.917L1060.69 206.087L1055.94 199.393Z" fill="#703A25"/>
<path d="M783.178 192.811L720 237.64L724.747 244.335L787.925 199.506L783.178 192.811Z" fill="white"/>
<path d="M892.155 1.41701e-05L871.817 63.6336L879.632 66.1332L899.971 2.49959L892.155 1.41701e-05Z" fill="#F0C8C0"/>
<path d="M885.553 272.867L865.215 336.5L873.03 339L893.369 275.366L885.553 272.867Z" fill="#703A25"/>
<path d="M836.04 159.703L831.052 210.501L837.765 211.16L842.753 160.363L836.04 159.703Z" fill="#F0C8C0"/>
<path d="M989.034 126.309L948.093 221.768L956.955 225.571L997.896 130.112L989.034 126.309Z" fill="#F0C8C0"/>
<path d="M945.37 47.425L938.495 48.7431L952.426 121.449L959.301 120.131L945.37 47.425Z" fill="#F9F2F0"/>
<path d="M917.599 181.144L860.274 221.821L863.947 227.001L921.273 186.324L917.599 181.144Z" fill="#F9F2F0"/>
<path d="M892.178 119.816L890.034 125.456L929.868 140.609L932.013 134.968L892.178 119.816Z" fill="white"/>
<path d="M727.323 77.7954L721.163 85.2169L801.058 151.567L807.218 144.146L727.323 77.7954Z" fill="white"/>
<path d="M783.178 192.811L720 237.64L724.747 244.335L787.925 199.506L783.178 192.811Z" fill="#703A25"/>
<path d="M995.546 20.2618L976.551 59.0988L982.971 62.2407L1001.97 23.4037L995.546 20.2618Z" fill="#F0C8C0"/>
<path d="M828.55 30.0226L774.246 50.2999L777.05 57.8145L831.354 37.5373L828.55 30.0226Z" fill="#F9F2F0"/>
<path d="M892.155 1.41701e-05L871.817 63.6336L879.632 66.1332L899.971 2.49959L892.155 1.41701e-05Z" fill="#703A25"/>
</g>
</svg>
